<svg xmlns="http://www.w3.org/2000/svg" width="1024" height="1024"><path d="M0 512.001v512.001l512.25-.251 512.25-.251.251-511.75.251-511.75H0v512.001m.496.499c0 281.6.114 396.651.254 255.668.14-140.982.14-371.382 0-512C.61 115.551.496 230.9.496 512.5M190 5c0 .55-2.25 1-5 1s-5 .45-5 1c0 .556-2.667 1-6 1s-6 .444-6 1c0 .55-2.25 1-5 1s-5 .45-5 1-1.8 1-4 1-4 .45-4 1-.9 1-2 1-2 .45-2 1-1.35 1-3 1-3 .45-3 1-1.35 1-3 1-3 .45-3 1-1.35 1-3 1-3 .45-3 1-.801 1-1.779 1c-.979 0-2.428.9-3.221 2-.847 1.174-2.589 2-4.221 2-1.528 0-2.779.45-2.779 1s-.801 1-1.779 1c-.979 0-2.428.9-3.221 2-.793 1.1-2.242 2-3.221 2-.978 0-1.779.45-1.779 1s-.801 1-1.779 1c-.979 0-2.428.9-3.221 2-.793 1.1-2.143 2-3 2-.857 0-2.207.9-3 2-.793 1.1-2.062 2-2.82 2-.757 0-2.639 1.35-4.18 3s-3.303 3-3.915 3c-1.445 0-18.439 16.979-17.717 17.701.302.302 2.332-1.307 4.512-3.576C73.06 59.856 75.373 58 76.02 58c.648 0 2.439-1.35 3.98-3s3.423-3 4.18-3c.758 0 2.027-.9 2.82-2 .793-1.1 2.143-2 3-2 .857 0 2.207-.9 3-2 .793-1.1 2.143-2 3-2 .857 0 2.207-.9 3-2 .793-1.1 2.242-2 3.221-2 .978 0 1.779-.45 1.779-1s.801-1 1.779-1c.979 0 2.428-.9 3.221-2 .847-1.174 2.589-2 4.221-2 1.528 0 2.779-.45 2.779-1s.9-1 2-1 2-.45 2-1 .9-1 2-1 2-.45 2-1 .9-1 2-1 2-.45 2-1 1.35-1 3-1 3-.45 3-1 .9-1 2-1 2-.45 2-1 1.35-1 3-1 3-.45 3-1 1.8-1 4-1 4-.45 4-1 1.8-1 4-1 4-.45 4-1 2.25-1 5-1 5-.45 5-1c0-.556 2.667-1 6-1s6-.444 6-1c0-.583 3.333-1 8-1s8-.417 8-1c0-.635 7.667-1 21-1s21 .365 21 1c0 .664 91.333 1 272 1s272-.336 272-1c0-.635 7.667-1 21-1s21 .365 21 1c0 .583 3.333 1 8 1s8 .417 8 1c0 .556 2.667 1 6 1s6 .444 6 1c0 .55 2.25 1 5 1s5 .45 5 1 1.8 1 4 1 4 .45 4 1 1.8 1 4 1 4 .45 4 1 .9 1 2 1 2 .45 2 1 1.35 1 3 1 3 .45 3 1 1.35 1 3 1 3 .45 3 1 .9 1 2 1 2 .45 2 1 .9 1 2 1 2 .45 2 1 1.35 1 3 1 3 .45 3 1 .801 1 1.779 1c.979 0 2.428.9 3.221 2 .793 1.1 2.242 2 3.221 2 .978 0 1.779.45 1.779 1s.801 1 1.779 1c.979 0 2.428.9 3.221 2 .793 1.1 2.143 2 3 2 .857 0 2.207.9 3 2 .793 1.1 2.143 2 3 2 .857 0 2.207.9 3 2 .793 1.1 2.052 2 2.799 2 .747 0 3.087 1.8 5.201 4 2.114 2.2 4.516 4 5.338 4 .823 0 1.696.563 1.942 1.25.245.688.776.944 1.18.57.858-.796-7.883-9.82-9.512-9.82-.608 0-2.834-1.8-4.948-4-2.114-2.2-4.373-4-5.02-4-.648 0-2.439-1.35-3.98-3s-3.522-3-4.401-3c-.88 0-1.599-.45-1.599-1s-.801-1-1.779-1c-.979 0-2.428-.9-3.221-2-.793-1.1-2.143-2-3-2-.857 0-2.207-.9-3-2-.847-1.174-2.589-2-4.221-2-1.528 0-2.779-.45-2.779-1s-.9-1-2-1-2-.45-2-1-.9-1-2-1-2-.45-2-1-.9-1-2-1-2-.45-2-1-.9-1-2-1-2-.45-2-1-1.35-1-3-1-3-.45-3-1-1.35-1-3-1-3-.45-3-1-1.35-1-3-1-3-.45-3-1-1.35-1-3-1-3-.45-3-1-2.25-1-5-1-5-.45-5-1c0-.571-3-1-7-1s-7-.429-7-1c0-.55-1.8-1-4-1s-4-.45-4-1c0-.665-108-1-322-1s-322 .335-322 1m380 34c0 .55-.9 1-2 1-1.556 0-2 .667-2 3 0 1.65.45 3 1 3 .606 0 1 4.333 1 11s-.394 11-1 11c-.583 0-1 3.333-1 8s-.417 8-1 8-1 3.333-1 8-.417 8-1 8-1 3.333-1 8-.417 8-1 8c-.571 0-1 3-1 7s-.429 7-1 7c-.583 0-1 3.333-1 8s-.417 8-1 8-1 3.333-1 8-.417 8-1 8c-.571 0-1 3-1 7s-.429 7-1 7c-.55 0-1 1.8-1 4s-.45 4-1 4-1 1.8-1 4c0 3.333.333 4 2 4 1.1 0 2 .45 2 1 0 .6 4 1 10 1s10 .4 10 1c0 .556 2.667 1 6 1s6 .444 6 1c0 1.534 6.956 1.187 8.571-.429 1.016-1.015 1.429-3.904 1.429-10 0-5.047.411-8.571 1-8.571.55 0 1-1.8 1-4s.45-4 1-4 1-1.35 1-3 .45-3 1-3 1-1.8 1-4 .45-4 1-4 1-1.8 1-4 .45-4 1-4 1-1.8 1-4 .45-4 1-4 1-1.8 1-4 .45-4 1-4 1-1.8 1-4 .45-4 1-4 1-1.35 1-3 .45-3 1-3 1-1.8 1-4 .45-4 1-4 1-1.8 1-4 .45-4 1-4 1-1.8 1-4 .45-4 1-4 1-1.8 1-4 .45-4 1-4 1-1.8 1-4 .45-4 1-4 1-1.35 1-3 .45-3 1-3 1-1.8 1-4 .45-4 1-4 1-1.35 1-3 .45-3 1-3c1.557 0 1.194-8.949-.429-10.571-.896-.897-3.504-1.429-7-1.429-3.064 0-5.571-.45-5.571-1 0-.556-2.667-1-6-1s-6-.444-6-1c0-.571-3-1-7-1s-7-.429-7-1c0-.593-3.667-1-9-1s-9-.407-9-1c0-.55-.45-1-1-1s-1 .45-1 1m0 6c0 .55.45 1 1 1 .606 0 1 4.333 1 11s-.394 11-1 11c-.571 0-1 3-1 7s-.429 7-1 7c-.583 0-1 3.333-1 8s-.417 8-1 8c-.571 0-1 3-1 7s-.429 7-1 7-1 3-1 7-.429 7-1 7c-.583 0-1 3.333-1 8s-.417 8-1 8c-.571 0-1 3-1 7s-.429 7-1 7-1 3-1 7-.429 7-1 7c-.556 0-1 2.667-1 6s-.444 6-1 6c-.55 0-1 .9-1 2s-.45 2-1 2-1 .9-1 2c0 1.667.667 2 4 2 2.2 0 4 .45 4 1 0 .571 3 1 7 1s7 .429 7 1c0 .556 2.667 1 6 1s6 .444 6 1c0 .55 1.8 1 4 1h4v-9c0-5.333.407-9 1-9 .55 0 1-1.8 1-4s.45-4 1-4 1-1.8 1-4 .45-4 1-4 1-1.8 1-4 .45-4 1-4 1-1.35 1-3 .45-3 1-3 1-1.8 1-4 .45-4 1-4 1-1.8 1-4 .45-4 1-4 1-1.8 1-4 .45-4 1-4 1-1.8 1-4 .45-4 1-4 1-1.8 1-4 .45-4 1-4 1-1.8 1-4 .45-4 1-4 1-1.35 1-3 .45-3 1-3 1-1.8 1-4 .45-4 1-4 1-1.8 1-4 .45-4 1-4 1-1.8 1-4 .45-4 1-4 1-1.8 1-4 .45-4 1-4 1-1.8 1-4 .45-4 1-4 1-.9 1-2c0-1.81-.667-2-7-2-4 0-7-.429-7-1 0-.556-2.667-1-6-1s-6-.444-6-1c0-.583-3.333-1-8-1s-8-.417-8-1-3.333-1-8-1-8 .417-8 1m92 12c0 .55-1.8 1-4 1s-4 .45-4 1-.9 1-2 1-2 .45-2 1-.685 1-1.522 1C646.498 62 636 72.498 636 74.478c0 .837-.45 1.522-1 1.522s-1 .9-1 2-.45 2-1 2-1 1.35-1 3-.45 3-1 3-1 1.8-1 4-.45 4-1 4-1 1.35-1 3-.45 3-1 3-1 1.8-1 4-.45 4-1 4-1 1.35-1 3-.45 3-1 3-1 1.35-1 3-.45 3-1 3-1 1.8-1 4-.45 4-1 4c-.6 0-1 4-1 10s.4 10 1 10c.55 0 1 .69 1 1.533 0 1.991 6.476 8.467 8.467 8.467.843 0 1.533.45 1.533 1s1.35 1 3 1 3 .45 3 1 1.35 1 3 1 3 .45 3 1 1.8 1 4 1 4 .45 4 1 1.35 1 3 1 3 .45 3 1 1.35 1 3 1 3 .45 3 1 1.35 1 3 1 3 .45 3 1 .707 1 1.571 1c4.223 0 5.964 6.452 2.429 9-1.1.793-2 2.049-2 2.792 0 .743-.643 1.994-1.429 2.779-1.623 1.624-6.571 1.947-6.571.429 0-.55-.9-1-2-1s-2-.45-2-1-1.35-1-3-1-3-.45-3-1-1.35-1-3-1-3-.45-3-1-1.35-1-3-1-3-.45-3-1-1.8-1-4-1-4-.45-4-1-1.35-1-3-1-3-.45-3-1-1.35-1-3-1-3-.45-3-1-.719-1-1.599-1c-.879 0-2.86-1.35-4.401-3-3.24-3.469-6-3.929-6-1 0 1.1-.45 2-1 2-.556 0-1 2.667-1 6s-.444 6-1 6c-.55 0-1 2.25-1 5s-.45 5-1 5c-1.534 0-1.187 6.956.429 8.571.785.786 3.035 1.429 5 1.429 1.964 0 3.571.45 3.571 1s1.8 1 4 1 4 .45 4 1 1.35 1 3 1 3 .45 3 1 1.8 1 4 1 4 .45 4 1 1.35 1 3 1 3 .45 3 1 .9 1 2 1 2 .45 2 1 1.35 1 3 1 3 .45 3 1 1.35 1 3 1 3 .45 3 1 .9 1 2 1 2 .45 2 1 1.35 1 3 1 3 .45 3 1 .9 1 2 1 2 .45 2 1 1.8 1 4 1 4 .45 4 1 1.35 1 3 1 3-.45 3-1 1.35-1 3-1 3-.45 3-1 .9-1 2-1 2-.45 2-1 .801-1 1.779-1c.979 0 2.428-.9 3.221-2 .793-1.1 2.049-2 2.792-2 1.651 0 4.208-2.435 4.208-4.007 0-.632 1.8-2.879 4-4.993 2.2-2.114 4-4.454 4-5.201 0-.747.9-2.006 2-2.799 1.1-.793 2-2.143 2-3 0-.857.9-2.207 2-3 1.1-.793 2-2.062 2-2.82 0-.757 1.35-2.639 3-4.18s3-3.423 3-4.18c0-.758.9-2.027 2-2.82 1.1-.793 2-2.143 2-3 0-.857.9-2.207 2-3 1.1-.793 2-2.143 2-3 0-.857.9-2.207 2-3 1.1-.793 2-2.242 2-3.221 0-.978.45-1.779 1-1.779s1-1.35 1-3 .45-3 1-3c.583 0 1-3.333 1-8s-.417-8-1-8c-.55 0-1-.707-1-1.571 0-1.928-2.377-4.429-4.208-4.429-.743 0-1.999-.9-2.792-2-.793-1.1-2.242-2-3.221-2-.978 0-1.779-.45-1.779-1s-.9-1-2-1-2-.45-2-1-.9-1-2-1-2-.45-2-1-.9-1-2-1-2-.45-2-1-1.35-1-3-1-3-.45-3-1-.9-1-2-1-2-.45-2-1-1.35-1-3-1-3-.45-3-1-1.35-1-3-1-3-.45-3-1-1.35-1-3-1-3-.45-3-1-.707-1-1.571-1c-.865 0-2.215-.643-3-1.429-1.639-1.638-1.914-4.571-.429-4.571.55 0 1-.9 1-2s.45-2 1-2 1-.707 1-1.571c0-.865.643-2.215 1.429-3C691.067 95.79 694 95.515 694 97c0 .55 1.35 1 3 1s3 .45 3 1 1.35 1 3 1 3 .45 3 1 1.35 1 3 1 3 .45 3 1 .9 1 2 1 2 .45 2 1 1.35 1 3 1 3 .45 3 1 .9 1 2 1 2 .45 2 1 1.35 1 3 1 3 .45 3 1 .9 1 2 1 2 .45 2 1 .9 1 2 1 2 .45 2 1 .9 1 2 1 2 .45 2 1 .9 1 2 1 2 .45 2 1 .707 1 1.571 1c1.819 0 4.429 2.342 4.429 3.974 0 1.45 4.576 6.026 6.026 6.026 1.632 0 3.974-2.61 3.974-4.429 0-.864.45-1.571 1-1.571s1-1.35 1-3 .45-3 1-3 1-.9 1-2 .45-2 1-2 1-.9 1-2 .45-2 1-2 1-.801 1-1.779c0-.979.9-2.428 2-3.221 1.1-.793 2-2.488 2-3.766 0-3.088-4.272-7.234-7.455-7.234-1.4 0-2.545-.45-2.545-1s-.9-1-2-1-2-.45-2-1-.9-1-2-1-2-.45-2-1-.9-1-2-1-2-.45-2-1-.9-1-2-1-2-.45-2-1-1.35-1-3-1-3-.45-3-1-.9-1-2-1-2-.45-2-1-.9-1-2-1-2-.45-2-1-1.35-1-3-1-3-.45-3-1-1.35-1-3-1-3-.45-3-1-.9-1-2-1-2-.45-2-1-1.35-1-3-1-3-.45-3-1-1.35-1-3-1-3-.45-3-1-1.35-1-3-1-3-.45-3-1-1.35-1-3-1-3-.45-3-1-1.35-1-3-1-3-.45-3-1-1.35-1-3-1-3-.45-3-1-1.8-1-4-1-4-.45-4-1c0-.556-2.667-1-6-1s-6-.444-6-1c0-.55-.45-1-1-1s-1 .45-1 1m-6 6c0 .55-.9 1-2 1s-2 .45-2 1-.687 1-1.526 1C648.489 66 640 74.489 640 76.474c0 .839-.45 1.526-1 1.526s-1 .9-1 2-.45 2-1 2-1 1.35-1 3-.45 3-1 3-1 1.35-1 3-.45 3-1 3-1 1.35-1 3-.45 3-1 3-1 1.35-1 3-.45 3-1 3-1 1.8-1 4-.45 4-1 4-1 1.35-1 3-.45 3-1 3-1 1.35-1 3-.45 3-1 3c-.57 0-1 2.972-1 6.917 0 4.555-.427 7.115-1.25 7.5-1 .466-1 .7 0 1.166.688.321 1.25 2.136 1.25 4.034 0 2.603.851 4.301 3.467 6.916 1.906 1.907 4.156 3.467 5 3.467.843 0 1.533.45 1.533 1s.9 1 2 1 2 .45 2 1 1.8 1 4 1 4 .45 4 1 1.35 1 3 1 3 .45 3 1 1.35 1 3 1 3 .45 3 1 1.35 1 3 1 3 .45 3 1 1.35 1 3 1 3 .45 3 1 .9 1 2 1 2 .45 2 1 .707 1 1.571 1c.865 0 2.215.643 3 1.429 1.639 1.638 1.914 4.571.429 4.571-.55 0-1 .9-1 2s-.45 2-1 2-1 .9-1 2-.45 2-1 2-1 .9-1 2c0 1.333-.667 2-2 2-1.1 0-2 .45-2 1s-.9 1-2 1-2-.45-2-1-.9-1-2-1-2-.45-2-1-1.35-1-3-1-3-.45-3-1-1.35-1-3-1-3-.45-3-1-1.35-1-3-1-3-.45-3-1-1.35-1-3-1-3-.45-3-1-1.8-1-4-1-4-.45-4-1-1.35-1-3-1-3-.45-3-1-.9-1-2-1-2-.45-2-1-.801-1-1.779-1c-.979 0-2.428-.9-3.221-2-2.028-2.813-3-2.489-3 1 0 1.65-.45 3-1 3-.556 0-1 2.667-1 6s-.444 6-1 6c-.55 0-1 1.762-1 3.917 0 2.229-.535 4.095-1.241 4.33-2.062.687 1.752 3.753 4.67 3.753 1.414 0 2.571.45 2.571 1s1.8 1 4 1 4 .45 4 1 1.8 1 4 1 4 .45 4 1 1.35 1 3 1 3 .45 3 1 1.35 1 3 1 3 .45 3 1 1.35 1 3 1 3 .45 3 1 .9 1 2 1 2 .45 2 1 1.35 1 3 1 3 .45 3 1 1.35 1 3 1 3 .45 3 1 .9 1 2 1 2 .45 2 1 .9 1 2 1 2 .45 2 1 1.8 1 4 1 4 .45 4 1 1.35 1 3 1 3-.45 3-1 1.35-1 3-1 3-.45 3-1 .9-1 2-1 2-.45 2-1 .683-1 1.519-1c1.847 0 14.481-12.441 14.481-14.261 0-.713.9-1.946 2-2.739 1.1-.793 2-2.062 2-2.82 0-.757 1.35-2.639 3-4.18s3-3.423 3-4.18c0-.758.9-2.027 2-2.82 1.1-.793 2-2.143 2-3 0-.857.9-2.207 2-3 1.1-.793 2-2.062 2-2.82 0-.757 1.35-2.639 3-4.18s3-3.423 3-4.18c0-.758.9-2.027 2-2.82 1.1-.793 2-2.242 2-3.221 0-.978.45-1.779 1-1.779s1-1.35 1-3 .45-3 1-3c.568 0 1-2.926 1-6.779 0-5.632-.338-7.023-2-8.221-1.1-.793-2-2.242-2-3.221 0-1.039-.74-1.779-1.779-1.779-.979 0-2.428-.9-3.221-2-.793-1.1-2.242-2-3.221-2-.978 0-1.779-.45-1.779-1s-.9-1-2-1-2-.45-2-1-1.35-1-3-1-3-.45-3-1-.9-1-2-1-2-.45-2-1-1.35-1-3-1-3-.45-3-1-.9-1-2-1-2-.45-2-1-1.35-1-3-1-3-.45-3-1-1.35-1-3-1-3-.45-3-1-1.145-1-2.545-1c-3.777 0-7.455-4.171-7.455-8.455 0-1.95.45-3.545 1-3.545s1-.9 1-2 .45-2 1-2 1-.9 1-2c0-1.333.667-2 2-2 1.1 0 2-.45 2-1s1.35-1 3-1 3 .45 3 1 1.35 1 3 1 3 .45 3 1 .9 1 2 1 2 .45 2 1 1.35 1 3 1 3 .45 3 1 1.35 1 3 1 3 .45 3 1 .9 1 2 1 2 .45 2 1 1.35 1 3 1 3 .45 3 1 .9 1 2 1 2 .45 2 1 .9 1 2 1 2 .45 2 1 1.35 1 3 1 3 .45 3 1 .9 1 2 1 2 .45 2 1 .687 1 1.526 1c1.985 0 10.474 8.489 10.474 10.474 0 .839.257 1.526.571 1.526 1.174 0 3.429-2.913 3.429-4.429 0-.864.45-1.571 1-1.571s1-.9 1-2 .45-2 1-2 1-.9 1-2 .45-2 1-2 1-.9 1-2 .45-2 1-2 1-.9 1-2 .45-2 1-2 1-1.8 1-4c0-3.333-.333-4-2-4-1.1 0-2-.45-2-1s-.9-1-2-1-2-.45-2-1-1.35-1-3-1-3-.45-3-1-.9-1-2-1-2-.45-2-1-.9-1-2-1-2-.45-2-1-.9-1-2-1-2-.45-2-1-1.35-1-3-1-3-.45-3-1-.9-1-2-1-2-.45-2-1-1.35-1-3-1-3-.45-3-1-.9-1-2-1-2-.45-2-1-1.35-1-3-1-3-.45-3-1-1.35-1-3-1-3-.45-3-1-1.35-1-3-1-3-.45-3-1-1.35-1-3-1-3-.45-3-1-1.35-1-3-1-3-.45-3-1-1.35-1-3-1-3-.45-3-1-1.35-1-3-1-3-.45-3-1-1.8-1-4-1-4-.45-4-1c0-.6-4-1-10-1s-10 .4-10 1M498 75c0 .625-6 1-16 1s-16 .375-16 1c0 .593-3.667 1-9 1s-9 .407-9 1c0 .571-3 1-7 1s-7 .429-7 1c0 .55-2.045 1-4.545 1-3.493 0-5.114.568-7 2.455C420.037 86.872 419.049 92 421 92c.583 0 1 3.333 1 8s.417 8 1 8c.55 0 1 1.157 1 2.571 0 1.415.682 3.254 1.517 4.088 1.355 1.356 1.823 1.189 4.401-1.571 1.586-1.698 3.604-3.088 4.483-3.088.88 0 1.599-.45 1.599-1s1.35-1 3-1 3-.45 3-1c0-.583 3.333-1 8-1s8-.417 8-1c0-.6 4-1 10-1s10-.4 10-1c0-.589 3.524-1 8.571-1 9.177 0 11.429.985 11.429 5 0 4.279-2.081 5-14.429 5-7.047 0-11.571.391-11.571 1 0 .6-4 1-10 1s-10 .4-10 1c0 .55-2.25 1-5 1s-5 .45-5 1-.9 1-2 1-2 .45-2 1-.695 1-1.545 1c-2.001 0-6.455 4.454-6.455 6.455 0 .85-.45 1.545-1 1.545s-1 1.35-1 3-.45 3-1 3-1 2.25-1 5 .45 5 1 5 1 1.8 1 4 .45 4 1 4 1 1.8 1 4 .45 4 1 4 1 1.8 1 4 .45 4 1 4 1 1.35 1 3 .45 3 1 3 1 .9 1 2 .45 2 1 2 1 .801 1 1.779c0 .979.9 2.428 2 3.221 1.1.793 2 2.242 2 3.221 0 1.039.74 1.779 1.779 1.779.979 0 2.428.9 3.221 2 .793 1.1 2.242 2 3.221 2 .978 0 1.779.45 1.779 1 0 .593 3.667 1 9 1s9-.407 9-1c0-.606 4.333-1 11-1s11-.394 11-1c0-.55 1.635-1 3.633-1 2.474 0 4.228-.687 5.5-2.153l1.867-2.153 1.867 2.153c1.753 2.021 2.766 2.153 16.5 2.153 9.089 0 14.633.379 14.633 1 0 1.534 6.956 1.187 8.571-.429 1.639-1.638 1.914-4.571.429-4.571-.619 0-1-5.333-1-14s.381-14 1-14c.611 0 1-4.667 1-12s.389-12 1-12 1-4.667 1-12 .389-12 1-12c.55 0 1-1.8 1-4s-.45-4-1-4-1-1.8-1-4-.45-4-1-4-1-.9-1-2-.45-2-1-2-1-.687-1-1.526C544 86.489 535.511 78 533.526 78c-.839 0-1.526-.45-1.526-1s-2.25-1-5-1-5-.45-5-1c0-.611-4.667-1-12-1s-12 .389-12 1m8 4c0 .632-7 1-19 1s-19 .368-19 1c0 .593-3.667 1-9 1s-9 .407-9 1c0 .571-3 1-7 1s-7 .429-7 1c0 .556-2.667 1-6 1h-6v6c0 3.333.444 6 1 6 .571 0 1 3 1 7 0 6.044.243 7 1.779 7 .979 0 2.428-.9 3.221-2 .793-1.1 2.242-2 3.221-2 .978 0 1.779-.45 1.779-1s1.35-1 3-1 3-.45 3-1c0-.571 3-1 7-1s7-.429 7-1c0-.6 4-1 10-1s10-.4 10-1c0-.604 4.19-1 10.571-1 12.675 0 13.429.473 13.429 8.429V114h-4c-2.2 0-4 .45-4 1 0 .615-5 1-13 1s-13 .385-13 1c0 .583-3.333 1-8 1s-8 .417-8 1c0 .55-1.8 1-4 1s-4 .45-4 1-.69 1-1.533 1c-1.991 0-8.467 6.476-8.467 8.467 0 .843-.45 1.533-1 1.533-.583 0-1 3.333-1 8s.417 8 1 8c.55 0 1 1.8 1 4s.45 4 1 4 1 1.8 1 4 .45 4 1 4 1 1.35 1 3 .45 3 1 3 1 1.35 1 3 .45 3 1 3 1 .9 1 2 .45 2 1 2 1 .695 1 1.545c0 2.001 4.454 6.455 6.455 6.455.85 0 1.545.45 1.545 1s.9 1 2 1 2 .45 2 1c0 .583 3.333 1 8 1s8-.417 8-1c0-.606 4.333-1 11-1s11-.394 11-1c0-.55 1.619-1 3.599-1 2.709 0 4.291-.742 6.401-3 1.541-1.65 3.072-3 3.401-3 .33 0 .599 1.35.599 3v3h15c9.333 0 15 .378 15 1 0 .55 1.35 1 3 1h3v-17c0-10.667.373-17 1-17 .615 0 1-5 1-13s.385-13 1-13c.627 0 1-6.333 1-17s-.373-17-1-17c-.55 0-1-.9-1-2s-.45-2-1-2-1-.69-1-1.533c0-1.991-6.476-8.467-8.467-8.467-.843 0-1.533-.45-1.533-1 0-.556-2.667-1-6-1s-6-.444-6-1c0-.571-3-1-7-1s-7 .429-7 1m-106 8c0 .55-1.8 1-4 1s-4 .45-4 1-1.8 1-4 1-4 .45-4 1-1.8 1-4 1-4 .45-4 1-1.8 1-4 1-4 .45-4 1-1.35 1-3 1-3 .45-3 1-1.35 1-3 1-3 .45-3 1-1.35 1-3 1-3 .45-3 1-1.35 1-3 1-3 .45-3 1-1.35 1-3 1-3 .45-3 1-1.35 1-3 1-3 .45-3 1-1.35 1-3 1-3 .45-3 1-.9 1-2 1-2 .45-2 1-.685 1-1.522 1C317.86 112 308 122.65 308 125.478c0 1.387-.45 2.522-1 2.522-.571 0-1 3-1 7s.429 7 1 7c.55 0 1 1.35 1 3s.45 3 1 3 1 .801 1 1.779c0 .979.9 2.428 2 3.221 1.1.793 2 2.143 2 3 0 .857.9 2.207 2 3 1.1.793 2 2.242 2 3.221 0 .978.45 1.779 1 1.779s1 .801 1 1.779c0 .979.9 2.428 2 3.221 1.1.793 2 2.242 2 3.221 0 .978.45 1.779 1 1.779s1 .801 1 1.779c0 .979.9 2.428 2 3.221 1.1.793 2 2.143 2 3 0 .857.9 2.207 2 3 1.1.793 2 2.242 2 3.221 0 .978.45 1.779 1 1.779s1 .801 1 1.779c0 .979.9 2.428 2 3.221 1.1.793 2 2.027 2 2.742 0 1.695 10.563 12.258 12.258 12.258.715 0 1.949.9 2.742 2 .847 1.174 2.589 2 4.221 2 1.528 0 2.779.45 2.779 1 0 .571 3 1 7 1s7-.429 7-1c0-.55 1.8-1 4-1s4-.45 4-1 1.35-1 3-1 3-.45 3-1 1.35-1 3-1 3-.45 3-1 1.35-1 3-1 3-.45 3-1 1.8-1 4-1 4-.45 4-1 1.35-1 3-1 3-.45 3-1 1.8-1 4-1 4-.45 4-1 1.8-1 4-1 4-.45 4-1 .9-1 2-1c1.333 0 2-.667 2-2 0-1.1-.45-2-1-2-.583 0-1-3.333-1-8s-.417-8-1-8c-.55 0-1-2.25-1-5v-5h-4c-2.97 0-4 .405-4 1.571 0 2.021-2.408 4.429-4.429 4.429-.864 0-1.571.45-1.571 1s-1.8 1-4 1-4 .45-4 1-1.35 1-3 1-3 .45-3 1-1.8 1-4 1-4 .45-4 1-1.762 1-3.917 1-4.179.562-4.5 1.25c-.466 1-.7 1-1.166 0-.321-.688-1.446-1.25-2.5-1.25-1.25 0-1.917-.696-1.917-2 0-1.1-.45-2-1-2s-1-.9-1-2-.45-2-1-2-1-.9-1-2-.45-2-1-2-1-.9-1-2-.45-2-1-2-1-1.35-1-3-.45-3-1-3-1-.9-1-2-.45-2-1-2-1-.9-1-2-.45-2-1-2-1-.9-1-2-.45-2-1-2-1-.9-1-2-.45-2-1-2-1-.9-1-2-.45-2-1-2-1-.9-1-2-.45-2-1-2-1-2.25-1-5c0-4.333.267-5 2-5 1.1 0 2-.45 2-1s1.35-1 3-1 3-.45 3-1 1.35-1 3-1 3-.45 3-1 1.8-1 4-1 4-.45 4-1 1.35-1 3-1 3-.45 3-1c0-.6 4-1 10-1s10 .4 10 1c0 1.485 2.933 1.21 4.571-.429 1.639-1.638 1.914-4.571.429-4.571-.55 0-1-.9-1-2s-.45-2-1-2-1-1.35-1-3-.45-3-1-3-1-.9-1-2-.45-2-1-2-1-1.14-1-2.533c0-1.558-1.336-3.869-3.467-6C400.9 85.834 400 85.344 400 87m0 4c0 .55-1.35 1-3 1s-3 .45-3 1-1.8 1-4 1-4 .45-4 1-1.8 1-4 1-4 .45-4 1-1.8 1-4 1-4 .45-4 1-1.35 1-3 1-3 .45-3 1-1.35 1-3 1-3 .45-3 1-1.8 1-4 1-4 .45-4 1-1.35 1-3 1-3 .45-3 1-1.35 1-3 1-3 .45-3 1-.9 1-2 1-2 .45-2 1-1.35 1-3 1-3 .45-3 1-.9 1-2 1-2 .45-2 1-.801 1-1.779 1c-.979 0-2.428.9-3.221 2-.793 1.1-2.242 2-3.221 2-1.112 0-1.779.749-1.779 2 0 1.1-.45 2-1 2s-1 .9-1 2-.45 2-1 2c-.583 0-1 3.333-1 8s.417 8 1 8c.55 0 1 1.251 1 2.779 0 1.632.826 3.374 2 4.221 1.1.793 2 2.242 2 3.221 0 .978.45 1.779 1 1.779s1 .801 1 1.779c0 .979.9 2.428 2 3.221 1.1.793 2 2.143 2 3 0 .857.9 2.207 2 3 1.1.793 2 2.242 2 3.221 0 .978.45 1.779 1 1.779s1 .801 1 1.779c0 .979.9 2.428 2 3.221 1.1.793 2 2.242 2 3.221 0 .978.45 1.779 1 1.779s1 .801 1 1.779c0 .979.9 2.428 2 3.221 1.1.793 2 2.242 2 3.221 0 .978.45 1.779 1 1.779s1 .682 1 1.516c0 1.976 14.508 16.484 16.484 16.484.834 0 1.516.45 1.516 1s.9 1 2 1 2 .45 2 1c0 .571 3 1 7 1s7-.429 7-1c0-.55 1.8-1 4-1s4-.45 4-1 1.35-1 3-1 3-.45 3-1 1.35-1 3-1 3-.45 3-1 1.35-1 3-1 3-.45 3-1 1.35-1 3-1 3-.45 3-1 1.8-1 4-1 4-.45 4-1 1.8-1 4-1 4-.45 4-1 1.607-1 3.571-1c3.669 0 8.11-2.94 5.67-3.753-.764-.255-1.241-2.305-1.241-5.33 0-2.704-.45-4.917-1-4.917-.556 0-1-2.667-1-6 0-7.066-1.501-7.816-6-3-1.541 1.65-3.522 3-4.401 3-.88 0-1.599.45-1.599 1s-1.8 1-4 1-4 .45-4 1-1.8 1-4 1-4 .45-4 1-1.35 1-3 1-3 .45-3 1-2.49 1-5.533 1c-4.981 0-5.88-.346-9-3.467-1.907-1.906-3.467-4.156-3.467-5 0-.843-.45-1.533-1-1.533s-1-.9-1-2-.45-2-1-2-1-.9-1-2-.45-2-1-2-1-1.35-1-3-.45-3-1-3-1-.9-1-2-.45-2-1-2-1-.9-1-2-.45-2-1-2-1-.9-1-2-.45-2-1-2-1-.9-1-2-.45-2-1-2-1-.9-1-2-.45-2-1-2-1-1.35-1-3-.45-3-1-3-1-2.045-1-4.545c0-5.312 3.266-9.455 7.455-9.455 1.4 0 2.545-.45 2.545-1s1.8-1 4-1 4-.45 4-1 1.35-1 3-1 3-.45 3-1 1.8-1 4-1 4-.45 4-1 2.25-1 5-1 5-.45 5-1 .9-1 2-1 2 .45 2 1 1.8 1 4 1c3.333 0 4-.333 4-2 0-1.1-.45-2-1-2s-1-.9-1-2-.45-2-1-2-1-1.35-1-3-.45-3-1-3-1-.9-1-2-.45-2-1-2-1-.707-1-1.571c0-1.516-2.255-4.429-3.429-4.429-.314 0-.571.45-.571 1m-132 46c0 .55-1.35 1-3 1s-3 .45-3 1-.9 1-2 1-2 .45-2 1-.9 1-2 1-2 .45-2 1-.9 1-2 1-2 .45-2 1-.801 1-1.779 1c-.979 0-2.428.9-3.221 2-.793 1.1-2.242 2-3.221 2-.978 0-1.779.45-1.779 1s-.801 1-1.779 1c-.979 0-2.428.9-3.221 2-.793 1.1-2.242 2-3.221 2-.978 0-1.779.45-1.779 1s-.801 1-1.779 1c-.979 0-2.428.9-3.221 2-.793 1.1-2.143 2-3 2-.857 0-2.207.9-3 2-.793 1.1-2.143 2-3 2-.857 0-2.207.9-3 2-.793 1.1-2.062 2-2.82 2-.757 0-2.639 1.35-4.18 3s-3.423 3-4.18 3c-.758 0-2.027.9-2.82 2-.793 1.1-2.029 2-2.747 2-1.821 0-10.253 8.613-10.253 10.474 0 .839-.45 1.526-1 1.526s-1 .9-1 2-.45 2-1 2c-.583 0-1 3.333-1 8s.417 8 1 8c.55 0 1 .801 1 1.779 0 .979.9 2.428 2 3.221 1.1.793 2 2.032 2 2.754 0 1.587 6.486 8.246 8.032 8.246.604 0 3.289 2.25 5.968 5s5.394 5 6.034 5c.64 0 2.425 1.35 3.966 3 1.541 1.65 3.332 3 3.98 3 .647 0 2.906 1.8 5.02 4 2.114 2.2 4.364 4 5 4 .636 0 2.886 1.8 5 4s4.454 4 5.201 4c.747 0 2.006.9 2.799 2 .793 1.1 2.242 2 3.221 2 .978 0 1.779.45 1.779 1s.9 1 2 1 2 .45 2 1 .9 1 2 1 2 .45 2 1 1.35 1 3 1 3 .45 3 1c0 .583 3.333 1 8 1s8-.417 8-1-3.333-1-8-1-8-.417-8-1c0-.55-1.35-1-3-1s-3-.45-3-1-.9-1-2-1-2-.45-2-1-.801-1-1.779-1c-.979 0-2.428-.9-3.221-2-.793-1.1-2.143-2-3-2-.857 0-2.207-.9-3-2-.793-1.1-2.052-2-2.799-2-.747 0-3.087-1.8-5.201-4-2.114-2.2-4.364-4-5-4-.636 0-2.886-1.8-5-4s-4.364-4-5-4c-.636 0-2.886-1.8-5-4s-4.336-4-4.938-4C202.385 232 188 217.238 188 215.516c0-.834-.45-1.516-1-1.516s-1-.9-1-2-.45-2-1-2c-.556 0-1-2.667-1-6s.444-6 1-6c.55 0 1-.9 1-2s.45-2 1-2 1-.69 1-1.533c0-1.77 6.379-8.467 8.065-8.467.623 0 2.394-1.35 3.935-3s3.423-3 4.18-3c.758 0 2.027-.9 2.82-2 .793-1.1 2.143-2 3-2 .857 0 2.207-.9 3-2 .793-1.1 2.143-2 3-2 .857 0 2.207-.9 3-2 .793-1.1 2.143-2 3-2 .857 0 2.207-.9 3-2 .793-1.1 2.143-2 3-2 .857 0 2.207-.9 3-2 .793-1.1 2.242-2 3.221-2 .978 0 1.779-.45 1.779-1s.801-1 1.779-1c.979 0 2.428-.9 3.221-2 .793-1.1 2.242-2 3.221-2 .978 0 1.779-.45 1.779-1s.9-1 2-1 2-.45 2-1 .9-1 2-1 2-.45 2-1 .9-1 2-1 2-.45 2-1 .9-1 2-1 2-.45 2-1 .9-1 2-1 2-.45 2-1c0-.583 3.333-1 8-1s8 .417 8 1c0 .55 1.35 1 3 1s3 .45 3 1 .685 1 1.522 1c1.746 0 12.478 10.387 12.478 12.077 0 .616 1.35 2.382 3 3.923s3 3.423 3 4.18c0 .758.9 2.027 2 2.82 1.1.793 2 2.242 2 3.221 0 .978.45 1.779 1 1.779s1 .801 1 1.779c0 .979.9 2.428 2 3.221 1.1.793 2 2.143 2 3 0 .857.9 2.207 2 3 1.1.793 2 2.049 2 2.792 0 1.831-2.501 4.208-4.429 4.208-.864 0-1.571.45-1.571 1s-.9 1-2 1-2 .45-2 1-.9 1-2 1-2 .45-2 1-.9 1-2 1-2 .45-2 1-.9 1-2 1-2 .45-2 1-.801 1-1.779 1c-.979 0-2.428.9-3.221 2-.793 1.1-2.242 2-3.221 2-.978 0-1.779.45-1.779 1s-.801 1-1.779 1c-.979 0-2.428.9-3.221 2-.793 1.1-2.242 2-3.221 2-.978 0-1.779.45-1.779 1s-.801 1-1.779 1c-.979 0-2.428.9-3.221 2-.793 1.1-2.143 2-3 2-.857 0-2.207.9-3 2-.793 1.1-2.049 2-2.792 2-.743 0-2.014.663-2.824 1.474-1.298 1.298-.697 2.25 5.053 8 3.589 3.589 7.209 6.526 8.044 6.526.836 0 1.519.45 1.519 1s.9 1 2 1 2-.45 2-1 .9-1 2-1 2-.45 2-1 .9-1 2-1 2-.45 2-1 .801-1 1.779-1c.979 0 2.428-.9 3.221-2 .793-1.1 2.143-2 3-2 .857 0 2.207-.9 3-2 .793-1.1 2.242-2 3.221-2 .978 0 1.779-.45 1.779-1s.9-1 2-1 2-.45 2-1 .9-1 2-1 2-.45 2-1 .801-1 1.779-1c.979 0 2.428-.9 3.221-2 .793-1.1 2.052-2 2.799-2 .747 0 3.087-1.8 5.201-4 2.114-2.2 4.361-4 4.993-4 1.66 0 4.007 2.594 4.007 4.429 0 .864.45 1.571 1 1.571s1 .9 1 2 .45 2 1 2 1 .9 1 2 .45 2 1 2 1 .9 1 2 .45 2 1 2c1.485 0 1.21 2.933-.429 4.571-.785.786-2.135 1.429-3 1.429-.864 0-1.571.45-1.571 1s-.9 1-2 1-2 .45-2 1-.9 1-2 1-2 .45-2 1-.9 1-2 1-2 .45-2 1-.801 1-1.779 1c-.979 0-2.428.9-3.221 2-.793 1.1-2.242 2-3.221 2-.978 0-1.779.45-1.779 1s-.801 1-1.779 1c-.979 0-2.428.9-3.221 2-.793 1.1-2.143 2-3 2-.857 0-2.207.9-3 2-.793 1.1-2.143 2-3 2-.857 0-2.207.9-3 2-.793 1.1-2.143 2-3 2-.857 0-2.207.9-3 2-.793 1.1-2.143 2-3 2-.857 0-2.207.9-3 2-.793 1.1-2.143 2-3 2-.857 0-2.207.9-3 2-.793 1.1-2.242 2-3.221 2-.978 0-1.779.45-1.779 1s.9 1 2 1 2-.45 2-1 .801-1 1.779-1c.979 0 2.428-.9 3.221-2 .793-1.1 2.062-2 2.82-2 .757 0 2.639-1.35 4.18-3s3.423-3 4.18-3c.758 0 2.027-.9 2.82-2 .793-1.1 2.143-2 3-2 .857 0 2.207-.9 3-2 .793-1.1 2.242-2 3.221-2 .978 0 1.779-.45 1.779-1s.801-1 1.779-1c.979 0 2.428-.9 3.221-2 .793-1.1 2.242-2 3.221-2 .978 0 1.779-.45 1.779-1s.801-1 1.779-1c.979 0 2.428-.9 3.221-2 .793-1.1 2.242-2 3.221-2 .978 0 1.779-.45 1.779-1s.9-1 2-1 2-.45 2-1 .9-1 2-1 2-.45 2-1 .9-1 2-1 2-.45 2-1 .9-1 2-1c1.667 0 2-.667 2-4 0-2.2-.45-4-1-4s-1-.801-1-1.779c0-.979-.9-2.428-2-3.221-1.1-.793-2-2.242-2-3.221 0-.978-.45-1.779-1-1.779s-1-1.145-1-2.545-1.105-3.65-2.455-5c-2.767-2.767-7.545-3.351-7.545-.922 0 1.991-6.476 8.467-8.467 8.467-.843 0-1.533.45-1.533 1s-.801 1-1.779 1c-.979 0-2.428.9-3.221 2-.793 1.1-2.242 2-3.221 2-.978 0-1.779.45-1.779 1s-.9 1-2 1-2 .45-2 1-.9 1-2 1-2 .45-2 1-.801 1-1.779 1c-.979 0-2.428.9-3.221 2-.793 1.1-2.143 2-3 2-.857 0-2.207.9-3 2-.793 1.1-2.242 2-3.221 2-.978 0-1.779.45-1.779 1s-1.8 1-4 1-4-.45-4-1-.69-1-1.533-1c-1.74 0-8.467-6.366-8.467-8.012 0-1.526 4.645-5.988 6.234-5.988.728 0 1.973-.9 2.766-2 .793-1.1 2.242-2 3.221-2 .978 0 1.779-.45 1.779-1s.801-1 1.779-1c.979 0 2.428-.9 3.221-2 .793-1.1 2.242-2 3.221-2 .978 0 1.779-.45 1.779-1s.801-1 1.779-1c.979 0 2.428-.9 3.221-2 .793-1.1 2.242-2 3.221-2 .978 0 1.779-.45 1.779-1s.9-1 2-1 2-.45 2-1 .9-1 2-1 2-.45 2-1 .9-1 2-1 2-.45 2-1 .9-1 2-1 2-.45 2-1 .9-1 2-1 2-.45 2-1 .707-1 1.571-1c2.191 0 5.322-3.202 3.67-3.753-.683-.228-1.241-1.177-1.241-2.11 0-.932-.9-2.344-2-3.137-1.1-.793-2-2.143-2-3 0-.857-.9-2.207-2-3-1.1-.793-2-2.143-2-3 0-.857-.9-2.207-2-3-1.1-.793-2-2.143-2-3 0-.857-.9-2.207-2-3-1.1-.793-2-2.143-2-3 0-.857-.9-2.207-2-3-1.1-.793-2-2.027-2-2.742 0-1.821-10.625-12.258-12.478-12.258-.837 0-1.522-.45-1.522-1s-.9-1-2-1-2-.45-2-1-1.35-1-3-1-3-.45-3-1c0-.556-2.667-1-6-1s-6 .444-6 1m212 0c0 .55-.707 1-1.571 1-3.307 0-4.429 2.643-4.429 10.429 0 4.381.421 7.571 1 7.571.55 0 1 1.595 1 3.545 0 2.431.772 4.317 2.455 6C480.656 167.747 481.743 168 489 168s8.344-.253 10.545-2.455c2.365-2.364 2.455-2.951 2.455-16V136h-11c-6.667 0-11 .394-11 1m0 2c0 .55-.9 1-2 1-1.81 0-2 .667-2 7 0 4 .429 7 1 7 .55 0 1 1.595 1 3.545 0 2.431.772 4.317 2.455 6C482.94 166.03 486 166.833 486 165c0-.55 2.507-1 5.571-1 8.052 0 8.429-.645 8.429-14.429V138h-10c-6 0-10 .4-10 1m288 12c0 .55-1.251 1-2.779 1-1.632 0-3.374.826-4.221 2-.793 1.1-2.029 2-2.747 2-1.595 0-10.253 8.505-10.253 10.072 0 .619-1.35 2.387-3 3.928s-3 3.341-3 4c0 .659-1.35 2.459-3 4s-3 3.341-3 4c0 .659-1.35 2.459-3 4s-3 3.341-3 4c0 .659-1.35 2.459-3 4s-3 3.341-3 4c0 .659-1.35 2.459-3 4s-3 3.423-3 4.18c0 .758-.9 2.027-2 2.82-1.1.793-2 2.242-2 3.221 0 .978-.45 1.779-1 1.779s-1 .9-1 2-.45 2-1 2-1 .9-1 2-.45 2-1 2-1 1.8-1 4-.45 4-1 4-1 .9-1 2 .45 2 1 2 1 1.137 1 2.526c0 2.695 7.845 11.474 10.253 11.474.718 0 1.954.9 2.747 2 .793 1.1 2.143 2 3 2 .857 0 2.207.9 3 2 .793 1.1 2.143 2 3 2 .857 0 2.207.9 3 2 .793 1.1 2.062 2 2.82 2 .757 0 2.639 1.35 4.18 3s3.341 3 4 3c.659 0 2.459 1.35 4 3s3.326 3 3.966 3c.64 0 3.355 2.25 6.034 5s5.475 5 6.214 5c.74 0 1.993.9 2.786 2 .793 1.1 2.242 2 3.221 2 .978 0 1.779.45 1.779 1 0 .606 4.333 1 11 1s11-.394 11-1c0-.55.9-1 2-1s2-.45 2-1-.9-1-2-1-2 .45-2 1c0 .605-4.26 1-10.779 1-9.632 0-10.933-.213-12.221-2-.793-1.1-2.062-2-2.82-2-.757 0-2.639-1.35-4.18-3s-3.332-3-3.98-3c-.647 0-2.906-1.8-5.02-4-2.114-2.2-4.373-4-5.02-4-.648 0-2.439-1.35-3.98-3s-3.423-3-4.18-3c-.758 0-2.027-.9-2.82-2-.793-1.1-2.062-2-2.82-2-.757 0-2.639-1.35-4.18-3s-3.522-3-4.401-3c-.88 0-1.599-.45-1.599-1s-.719-1-1.599-1c-.879 0-2.86-1.35-4.401-3s-3.329-3-3.973-3c-1.677 0-4.027-2.584-4.027-4.429 0-.864-.45-1.571-1-1.571-.571 0-1-3-1-7s.429-7 1-7c.55 0 1-.9 1-2s.45-2 1-2 1-.9 1-2 .45-2 1-2 1-.801 1-1.779c0-.979.9-2.428 2-3.221 1.1-.793 2-2.062 2-2.82 0-.757 1.35-2.639 3-4.18s3-3.341 3-4c0-.659 1.35-2.459 3-4s3-3.341 3-4c0-.659 1.35-2.459 3-4s3-3.341 3-4c0-.659 1.35-2.459 3-4s3-3.341 3-4c0-.659 1.35-2.459 3-4s3-3.312 3-3.935c0-1.57 6.64-8.065 8.246-8.065.722 0 1.961-.9 2.754-2 .793-1.1 2.242-2 3.221-2 .978 0 1.779-.45 1.779-1s1.8-1 4-1 4-.45 4-1c0-.556 2.667-1 6-1s6 .444 6 1c0 .55 1.251 1 2.779 1 1.632 0 3.374.826 4.221 2 .793 1.1 2.242 2 3.221 2 .978 0 1.779.45 1.779 1s.801 1 1.779 1c.979 0 2.428.9 3.221 2 .793 1.1 2.143 2 3 2 .857 0 2.207.9 3 2 .793 1.1 2.143 2 3 2 .857 0 2.207.9 3 2 .793 1.1 2.143 2 3 2 .857 0 2.207.9 3 2 .793 1.1 2.062 2 2.82 2 .757 0 2.639 1.35 4.18 3s3.341 3 4 3c.659 0 2.459 1.35 4 3s3.341 3 4 3c.659 0 2.459 1.35 4 3s3.326 3 3.966 3c.64 0 3.355 2.25 6.034 5s5.382 5 6.007 5c1.56 0 3.993 2.563 3.993 4.208 0 .743.9 1.999 2 2.792 1.1.793 2 2.242 2 3.221 0 .978.45 1.779 1 1.779.571 0 1 3 1 7s-.429 7-1 7c-.55 0-1 .683-1 1.519 0 1.739-12.389 14.481-14.08 14.481-.615 0-2.379 1.35-3.92 3s-3.423 3-4.18 3c-.758 0-2.027.9-2.82 2-.793 1.1-2.143 2-3 2-.857 0-2.207.9-3 2-.793 1.1-2.062 2-2.82 2-.757 0-2.639 1.35-4.18 3s-3.423 3-4.18 3c-.758 0-2.027.9-2.82 2-.793 1.1-2.143 2-3 2-.857 0-2.207.9-3 2-.793 1.1-2.143 2-3 2-.857 0-2.207.9-3 2-.793 1.1-2.143 2-3 2-.857 0-2.207.9-3 2-.793 1.1-2.242 2-3.221 2-.978 0-1.779.45-1.779 1 0 1.768 3.511 1.066 5-1 .793-1.1 2.143-2 3-2 .857 0 2.207-.9 3-2 .793-1.1 2.143-2 3-2 .857 0 2.207-.9 3-2 .793-1.1 2.143-2 3-2 .857 0 2.207-.9 3-2 .793-1.1 2.062-2 2.82-2 .757 0 2.639-1.35 4.18-3s3.423-3 4.18-3c.758 0 2.027-.9 2.82-2 .793-1.1 2.143-2 3-2 .857 0 2.207-.9 3-2 .793-1.1 2.143-2 3-2 .857 0 2.207-.9 3-2 .793-1.1 2.052-2 2.799-2 .747 0 3.087-1.8 5.201-4 2.114-2.2 4.361-4 4.993-4 1.572 0 4.007-2.557 4.007-4.208 0-.743.9-1.999 2-2.792 1.1-.793 2-2.242 2-3.221 0-.978.45-1.779 1-1.779.583 0 1-3.333 1-8s-.417-8-1-8c-.55 0-1-.681-1-1.514 0-1.718-16.386-18.486-18.064-18.486-.601 0-2.822-1.8-4.936-4s-4.373-4-5.02-4c-.648 0-2.439-1.35-3.98-3s-3.423-3-4.18-3c-.758 0-2.027-.9-2.82-2-.793-1.1-2.062-2-2.82-2-.757 0-2.639-1.35-4.18-3s-3.423-3-4.18-3c-.758 0-2.027-.9-2.82-2-.793-1.1-2.143-2-3-2-.857 0-2.207-.9-3-2-.793-1.1-2.143-2-3-2-.857 0-2.207-.9-3-2-.793-1.1-2.242-2-3.221-2-.978 0-1.779-.45-1.779-1s-.801-1-1.779-1c-.979 0-2.428-.9-3.221-2-.793-1.1-2.242-2-3.221-2-.978 0-1.779-.45-1.779-1 0-.606-4.333-1-11-1s-11 .394-11 1m-521 25c-.793 1.1-2.143 2-3 2-.857 0-2.207.9-3 2-.793 1.1-2.032 2-2.754 2-1.93 0-8.92 7.275-7.459 7.762.667.223 1.213 1.051 1.213 1.84C232 193.52 244.552 206 246.481 206c.836 0 1.519-.45 1.519-1s.801-1 1.779-1c.979 0 2.428-.9 3.221-2 .793-1.1 2.143-2 3-2 .857 0 2.207-.9 3-2 .793-1.1 2.143-2 3-2 .857 0 2.207-.9 3-2 .793-1.1 2.242-2 3.221-2 2.711 0 2.126-2.873-1.221-6-1.65-1.541-3-3.312-3-3.935 0-.622-1.56-2.692-3.467-4.598-2.883-2.884-4.191-3.467-7.779-3.467-3.165 0-4.696.532-5.754 2m3 1c0 .55-.9 1-2 1s-2 .45-2 1-.801 1-1.779 1c-.979 0-2.428.9-3.221 2-.793 1.1-2.038 2-2.766 2-1.963 0-6.947 5.262-5.456 5.759.672.224 1.222 1.066 1.222 1.87 0 1.824 4.449 6.371 6.234 6.371.728 0 1.973.9 2.766 2 1.489 2.066 5 2.768 5 1 0-.55.801-1 1.779-1 .979 0 2.428-.9 3.221-2 .793-1.1 2.143-2 3-2 .857 0 2.207-.9 3-2 .793-1.1 2.049-2 2.792-2 1.624 0 4.208-2.426 4.208-3.95 0-.602-2.465-3.559-5.478-6.572-3.741-3.741-6.278-5.478-8-5.478-1.387 0-2.522.45-2.522 1m548 11.571c0 1.174 2.913 3.429 4.429 3.429.864 0 1.571.45 1.571 1s.719 1 1.599 1c.879 0 2.86 1.35 4.401 3s3.317 3 3.947 3c1.438 0 6.053 4.548 6.053 5.966 0 1.376-20.652 22.034-22.027 22.034-.577 0-5.065 4.05-9.973 9s-9.615 9-10.462 9c-.846 0-1.538.45-1.538 1s-.9 1-2 1-2 .45-2 1c0 1.768-3.511 1.066-5-1-.793-1.1-2.143-2-3-2-.857 0-2.207-.9-3-2-.793-1.1-2.038-2-2.766-2-1.963 0-6.947-5.262-5.456-5.759.672-.224 1.222-1.058 1.222-1.854 0-.795 5.4-6.819 12-13.387 6.6-6.568 12-12.412 12-12.987C778 206.37 792.792 192 794.484 192c.834 0 1.516-.45 1.516-1 0-2.992-4.465.448-17.508 13.492-7.971 7.97-14.492 14.97-14.492 15.555 0 .585-2.7 3.714-6 6.953-3.3 3.239-6 6.552-6 7.361 0 .81-.562 1.735-1.25 2.056-1 .466-1 .7 0 1.166.688.321 1.25 1.446 1.25 2.5 0 1.09.69 1.917 1.599 1.917.879 0 2.86 1.35 4.401 3s3.423 3 4.18 3c.758 0 2.027.9 2.82 2 1.004 1.393 2.589 2 5.221 2 2.078 0 3.779-.45 3.779-1s.801-1 1.779-1c.979 0 2.428-.9 3.221-2 .793-1.1 2.036-2 2.764-2 .727 0 4.883-3.6 9.236-8 4.353-4.4 8.405-8 9.005-8 .601 0 4.198-3.15 7.995-7 3.797-3.85 7.6-7 8.452-7 .851 0 1.548-.801 1.548-1.779 0-.979.9-2.428 2-3.221 3.213-2.316 2.437-5.615-2.474-10.526-2.46-2.461-4.98-4.474-5.598-4.474-.619 0-2.387-1.35-3.928-3-1.723-1.845-3.803-3-5.401-3-1.43 0-2.599-.45-2.599-1s-.45-1-1-1-1 .257-1 .571M116 203c0 .55-1.35 1-3 1s-3 .45-3 1-.9 1-2 1-2 .45-2 1-.9 1-2 1-2 .45-2 1-.679 1-1.509 1C98.793 210 72 236.384 72 238.056c0 .591-2.25 3.265-5 5.944s-5 5.379-5 6c0 .621-2.25 3.321-5 6s-5 5.394-5 6.034c0 .64-1.35 2.425-3 3.966-1.65 1.541-3 3.341-3 4 0 .659-1.35 2.459-3 4s-3 3.341-3 4c0 .659-1.35 2.459-3 4s-3 3.341-3 4c0 .659-1.35 2.459-3 4s-3 3.423-3 4.18c0 .758-.9 2.027-2 2.82-1.1.793-2 2.143-2 3 0 .857-.9 2.207-2 3-1.1.793-2 2.143-2 3 0 .857-.9 2.207-2 3-1.1.793-2 2.242-2 3.221 0 .978-.45 1.779-1 1.779s-1 .801-1 1.779c0 .979-.9 2.428-2 3.221-1.1.793-2 2.242-2 3.221 0 .978-.45 1.779-1 1.779s-1 1.35-1 3v3h12c7.333 0 12-.389 12-1 0-.606-4.333-1-11-1-9.878 0-11-.181-11-1.779 0-.979.9-2.428 2-3.221 1.1-.793 2-2.143 2-3 0-.857.9-2.207 2-3 1.1-.793 2-2.143 2-3 0-.857.9-2.207 2-3 1.1-.793 2-2.143 2-3 0-.857.9-2.207 2-3 1.1-.793 2-2.143 2-3 0-.857.9-2.207 2-3 1.1-.793 2-2.062 2-2.82 0-.757 1.35-2.639 3-4.18s3-3.423 3-4.18c0-.758.9-2.027 2-2.82 1.1-.793 2-2.062 2-2.82 0-.757 1.35-2.639 3-4.18s3-3.332 3-3.98c0-.647 1.8-2.906 4-5.02 2.2-2.114 4-4.364 4-5 0-.636 1.8-2.886 4-5s4-4.353 4-4.977c0-.624 2.7-3.784 6-7.023s6-6.368 6-6.954C74 238.381 100.799 212 102.491 212c.83 0 1.509-.45 1.509-1s.9-1 2-1 2-.45 2-1 1.35-1 3-1 3-.45 3-1 1.8-1 4-1 4-.45 4-1c0-.556 2.667-1 6-1s6 .444 6 1c0 .55 1.35 1 3 1s3 .45 3 1 1.35 1 3 1 3 .45 3 1 .801 1 1.779 1c.979 0 2.428.9 3.221 2 .793 1.1 2.242 2 3.221 2 .978 0 1.779.45 1.779 1s.719 1 1.599 1c.879 0 2.86 1.35 4.401 3s3.341 3 4 3c.659 0 2.459 1.35 4 3s3.341 3 4 3c.659 0 2.459 1.35 4 3s3.423 3 4.18 3c.758 0 2.027.9 2.82 2 .793 1.1 2.062 2 2.82 2 .757 0 2.639 1.35 4.18 3s3.341 3 4 3c.659 0 2.459 1.35 4 3s3.341 3 4 3c.659 0 2.459 1.35 4 3s3.341 3 4 3c.659 0 2.459 1.35 4 3s3.303 3 3.915 3c1.693 0 18.085 16.755 18.085 18.486 0 .833.45 1.514 1 1.514s1 1.35 1 3 .45 3 1 3 1 1.8 1 4-.45 4-1 4-1 1.251-1 2.779c0 1.632-.826 3.374-2 4.221-1.1.793-2 2.033-2 2.756 0 .722-4.5 5.782-10 11.244s-10 10.431-10 11.044c0 .612-1.8 2.842-4 4.956-2.2 2.114-4 4.364-4 5 0 .636-1.8 2.886-4 5s-4 4.454-4 5.201c0 .747-.9 2.006-2 2.799-1.1.793-2 2.062-2 2.82 0 .757-1.35 2.639-3 4.18s-3 3.423-3 4.18c0 .758-.9 2.027-2 2.82-1.1.793-2 2.143-2 3 0 .857-.9 2.207-2 3-1.1.793-2 2.049-2 2.792 0 1.741-2.467 4.208-4.208 4.208-.743 0-1.999-.9-2.792-2-.793-1.1-2.242-2-3.221-2-.978 0-1.779-.45-1.779-1s-.9-1-2-1-2-.45-2-1-.9-1-2-1-2-.45-2-1-1.35-1-3-1-3-.45-3-1-1.35-1-3-1-3 .45-3 1 1.35 1 3 1 3 .45 3 1 1.35 1 3 1 3 .45 3 1 .9 1 2 1 2 .45 2 1 .9 1 2 1 2 .45 2 1 .801 1 1.779 1c.979 0 2.428.9 3.221 2 1.873 2.599 7 2.761 7 .221 0-.979.9-2.428 2-3.221 1.1-.793 2-2.143 2-3 0-.857.9-2.207 2-3 1.1-.793 2-2.143 2-3 0-.857.9-2.207 2-3 1.1-.793 2-2.143 2-3 0-.857.9-2.207 2-3 1.1-.793 2-2.062 2-2.82 0-.757 1.35-2.639 3-4.18s3-3.332 3-3.98c0-.647 1.8-2.906 4-5.02 2.2-2.114 4-4.358 4-4.987 0-.628 2.25-3.334 5-6.013s5-5.367 5-5.973c0-.607 4.05-5.119 9-10.027 4.95-4.908 9-9.615 9-10.462 0-.846.45-1.538 1-1.538s1-1.35 1-3 .45-3 1-3 1-1.8 1-4-.45-4-1-4-1-1.701-1-3.779c0-2.632-.607-4.217-2-5.221-1.1-.793-2-2.026-2-2.739 0-1.584-12.517-14.261-14.08-14.261-.615 0-2.379-1.35-3.92-3s-3.341-3-4-3c-.659 0-2.459-1.35-4-3s-3.341-3-4-3c-.659 0-2.459-1.35-4-3s-3.341-3-4-3c-.659 0-2.459-1.35-4-3s-3.423-3-4.18-3c-.758 0-2.027-.9-2.82-2-.793-1.1-2.062-2-2.82-2-.757 0-2.639-1.35-4.18-3s-3.341-3-4-3c-.659 0-2.459-1.35-4-3s-3.341-3-4-3c-.659 0-2.459-1.35-4-3s-3.423-3-4.18-3c-.758 0-2.027-.9-2.82-2-.793-1.1-2.242-2-3.221-2-.978 0-1.779-.45-1.779-1s-.801-1-1.779-1c-.979 0-2.428-.9-3.221-2-.847-1.174-2.589-2-4.221-2-1.528 0-2.779-.45-2.779-1s-1.35-1-3-1-3-.45-3-1c0-.6-4-1-10-1s-10 .4-10 1m770 38c-3.575 3.78-7.188 6.901-8.029 6.936-.841.035-2.178.964-2.971 2.064-.793 1.1-2.242 2-3.221 2-.978 0-1.779.45-1.779 1s-.801 1-1.779 1c-.979 0-2.428.9-3.221 2-.793 1.1-2.143 2-3 2-.857 0-2.207.9-3 2-.793 1.1-2.143 2-3 2-.857 0-2.207.9-3 2-.793 1.1-2.242 2-3.221 2-.978 0-1.779.45-1.779 1s-.801 1-1.779 1c-.979 0-2.428.9-3.221 2-.793 1.1-2.143 2-3 2-.857 0-2.207.9-3 2-.793 1.1-2.143 2-3 2-.857 0-2.207.9-3 2-.793 1.1-2.242 2-3.221 2-.978 0-1.779.45-1.779 1s-.801 1-1.779 1c-.979 0-2.428.9-3.221 2-.793 1.1-2.143 2-3 2-.857 0-2.207.9-3 2-.793 1.1-2.242 2-3.221 2-.978 0-1.779.45-1.779 1s-.801 1-1.779 1c-.979 0-2.428.9-3.221 2-.793 1.1-2.242 2-3.221 2-.978 0-1.779.45-1.779 1s-1.35 1-3 1-3 .45-3 1-.707 1-1.571 1c-1.812 0-4.429 2.34-4.429 3.96 0 .607 4.95 6.025 11 12.04 6.05 6.015 11 11.412 11 11.994 0 1.951 8.914 10.006 11.072 10.006 1.169 0 3.387-1.35 4.928-3s3.329-3 3.973-3c1.673 0 4.409-2.961 3.509-3.798-.416-.386-.957-.139-1.202.548-.246.688-1.129 1.25-1.962 1.25-.834 0-2.777 1.35-4.318 3-1.541 1.65-3.779 3-4.973 3-2.326 0-5.027-2.14-5.027-3.984 0-.62-2.7-3.777-6-7.016s-6-6.389-6-7c0-.611-2.7-3.761-6-7-6.199-6.084-7.494-9-4-9 1.1 0 2-.45 2-1s1.35-1 3-1 3-.45 3-1 .801-1 1.779-1c.979 0 2.428-.9 3.221-2 .793-1.1 2.242-2 3.221-2 .978 0 1.779-.45 1.779-1s.801-1 1.779-1c.979 0 2.428-.9 3.221-2 .793-1.1 2.143-2 3-2 .857 0 2.207-.9 3-2 .793-1.1 2.242-2 3.221-2 .978 0 1.779-.45 1.779-1s.801-1 1.779-1c.979 0 2.428-.9 3.221-2 .793-1.1 2.143-2 3-2 .857 0 2.207-.9 3-2 .793-1.1 2.143-2 3-2 .857 0 2.207-.9 3-2 .793-1.1 2.242-2 3.221-2 .978 0 1.779-.45 1.779-1s.801-1 1.779-1c.979 0 2.428-.9 3.221-2 .793-1.1 2.143-2 3-2 .857 0 2.207-.9 3-2 .793-1.1 2.143-2 3-2 .857 0 2.207-.9 3-2 .793-1.1 2.242-2 3.221-2 .978 0 1.779-.45 1.779-1s.801-1 1.779-1c.979 0 2.428-.9 3.221-2 .793-1.1 2.039-2 2.769-2s4.448-3.164 8.261-7.031l6.934-7.031 9.518 9.518c5.235 5.235 9.518 9.996 9.518 10.579 0 .584 3.15 4.168 7 7.965 3.85 3.797 7 7.563 7 8.368 0 .806.558 1.651 1.241 1.879 1.462.487-1.359 3.753-3.241 3.753-1.18 0-4 2.417-4 3.429 0 .314 2.25.571 5 .571s5 .45 5 1 .9 1 2 1 2 .45 2 1 .695 1 1.545 1c1.795 0 6.455 4.37 6.455 6.053 0 .63 1.35 2.406 3 3.947s3 3.423 3 4.18c0 .758.9 2.027 2 2.82 1.1.793 2 2.062 2 2.82 0 .757 1.35 2.639 3 4.18s3 3.423 3 4.18c0 .758.9 2.027 2 2.82 1.1.793 2 2.143 2 3 0 .857.9 2.207 2 3 1.1.793 2 2.242 2 3.221 0 .978.45 1.779 1 1.779s1 .9 1 2 .45 2 1 2 1 .9 1 2 .45 2 1 2 1-.9 1-2-.45-2-1-2-1-.9-1-2-.45-2-1-2-1-.801-1-1.779c0-.979-.9-2.428-2-3.221-1.1-.793-2-2.143-2-3 0-.857-.9-2.207-2-3-1.1-.793-2-2.143-2-3 0-.857-.9-2.207-2-3-1.1-.793-2-2.143-2-3 0-.857-.9-2.207-2-3-1.1-.793-2-2.062-2-2.82 0-.757-1.35-2.639-3-4.18s-3-3.307-3-3.923c0-1.69-10.732-12.077-12.478-12.077-.837 0-1.522-.45-1.522-1s-1.35-1-3-1c-3.489 0-3.813-.972-1-3 2.895-2.087 2.497-3.679-2-8-2.2-2.114-4-4.346-4-4.96 0-.614-4.05-5.132-9-10.04-4.95-4.908-9-9.402-9-9.988 0-2.111-8.915-10.013-11.224-9.948-1.469.041-4.58 2.5-8.776 6.936m-784 12c0 .55-.687 1-1.526 1C98.73 254 90 262.379 90 264.052c0 .608-1.8 2.834-4 4.948-2.2 2.114-4 4.454-4 5.201 0 .747-.9 2.006-2 2.799-1.1.793-2 2.242-2 3.221 0 1.112.749 1.779 2 1.779 1.1 0 2 .45 2 1s.9 1 2 1 2 .45 2 1 .9 1 2 1 2 .45 2 1 1.35 1 3 1 3 .45 3 1 .9 1 2 1 2 .45 2 1 .9 1 2 1 2 .45 2 1 .9 1 2 1 2 .45 2 1 .9 1 2 1 2 .45 2 1 1.35 1 3 1 3 .45 3 1 .9 1 2 1 2 .45 2 1 .9 1 2 1 2 .45 2 1 .9 1 2 1 2 .45 2 1 1.35 1 3 1 3 .45 3 1 .9 1 2 1 2 .45 2 1 .9 1 2 1 2 .45 2 1 .9 1 2 1 2 .45 2 1 .9 1 2 1 2 .45 2 1 1.35 1 3 1 3 .45 3 1 .9 1 2 1 2 .45 2 1 .9 1 2 1 2 .45 2 1 .9 1 2 1 2 .45 2 1 .9 1 2 1 2 .45 2 1 .862 1 1.917 1c1.054 0 2.097.543 2.319 1.207.449 1.349 9.764-7.485 9.764-9.259 0-.608 1.8-2.834 4-4.948 5.255-5.049 5.398-8.669.533-13.533-1.906-1.907-4.156-3.467-5-3.467-.843 0-1.533-.45-1.533-1s-.801-1-1.779-1c-.979 0-2.428-.9-3.221-2-.793-1.1-2.242-2-3.221-2-.978 0-1.779-.45-1.779-1s-.9-1-2-1-2-.45-2-1-.801-1-1.779-1c-.979 0-2.428-.9-3.221-2-.793-1.1-2.242-2-3.221-2-.978 0-1.779-.45-1.779-1s-.9-1-2-1-2-.45-2-1-.9-1-2-1-2-.45-2-1-.801-1-1.779-1c-.979 0-2.428-.9-3.221-2-.793-1.1-2.242-2-3.221-2-.978 0-1.779-.45-1.779-1s-.9-1-2-1-2-.45-2-1-.801-1-1.779-1c-.979 0-2.428-.9-3.221-2-.793-1.1-2.242-2-3.221-2-.978 0-1.779-.45-1.779-1s-.9-1-2-1-2-.45-2-1-.801-1-1.779-1c-.979 0-2.428-.9-3.221-2-.793-1.1-2.242-2-3.221-2-.978 0-1.779-.45-1.779-1s-1.35-1-3-1-3-.45-3-1-1.8-1-4-1-4 .45-4 1m-1 3c-.793 1.1-2.242 2-3.221 2-.978 0-1.779.7-1.779 1.555 0 .856-2.7 4.206-6 7.445s-6 6.424-6 7.077c0 .654-.949 2.012-2.109 3.018-1.898 1.646-1.956 1.983-.572 3.367.846.846 2.245 1.538 3.11 1.538.864 0 1.571.45 1.571 1s1.35 1 3 1 3 .45 3 1 .9 1 2 1 2 .45 2 1 1.35 1 3 1 3 .45 3 1 .9 1 2 1 2 .45 2 1 .9 1 2 1 2 .45 2 1 .9 1 2 1 2 .45 2 1 .9 1 2 1 2 .45 2 1 1.35 1 3 1 3 .45 3 1 .9 1 2 1 2 .45 2 1 .9 1 2 1 2 .45 2 1 .9 1 2 1 2 .45 2 1 1.35 1 3 1 3 .45 3 1 .9 1 2 1 2 .45 2 1 .9 1 2 1 2 .45 2 1 .9 1 2 1 2 .45 2 1 .9 1 2 1 2 .45 2 1 .9 1 2 1 2 .45 2 1 1.35 1 3 1 3 .45 3 1 .9 1 2 1 2 .45 2 1 .9 1 2 1 2 .45 2 1 .687 1 1.526 1c1.756 0 10.474-8.384 10.474-10.072 0-.619 1.35-2.387 3-3.928s3-3.767 3-4.947c0-2.481-4.184-7.053-6.455-7.053-.85 0-1.545-.45-1.545-1s-.801-1-1.779-1c-.979 0-2.428-.9-3.221-2-.793-1.1-2.242-2-3.221-2-.978 0-1.779-.45-1.779-1s-.9-1-2-1-2-.45-2-1-.801-1-1.779-1c-.979 0-2.428-.9-3.221-2-.793-1.1-2.242-2-3.221-2-.978 0-1.779-.45-1.779-1s-.9-1-2-1-2-.45-2-1-.9-1-2-1-2-.45-2-1-.801-1-1.779-1c-.979 0-2.428-.9-3.221-2-.793-1.1-2.242-2-3.221-2-.978 0-1.779-.45-1.779-1s-.9-1-2-1-2-.45-2-1-.801-1-1.779-1c-.979 0-2.428-.9-3.221-2-.793-1.1-2.242-2-3.221-2-.978 0-1.779-.45-1.779-1s-.9-1-2-1-2-.45-2-1-.801-1-1.779-1c-.979 0-2.428-.9-3.221-2-.793-1.1-2.242-2-3.221-2-.978 0-1.779-.45-1.779-1s-1.35-1-3-1-3-.45-3-1-1.701-1-3.779-1c-2.632 0-4.217.607-5.221 2m807 37c0 .55.45 1 1 1s1-.45 1-1-.45-1-1-1-1 .45-1 1m-6 2c0 .55.9 1 2 1s2-.45 2-1-.9-1-2-1-2 .45-2 1m10-.401c0 .329 1.35 1.86 3 3.401 1.65 1.541 3 3.423 3 4.18 0 .758.9 2.027 2 2.82 1.1.793 2 2.143 2 3 0 .857.9 2.207 2 3 1.174.847 2 2.589 2 4.221 0 2.112-.48 2.779-2 2.779-1.1 0-2 .45-2 1s-.9 1-2 1-2 .45-2 1-1.35 1-3 1-3 .45-3 1-1.35 1-3 1-3 .45-3 1-.9 1-2 1-2 .45-2 1-1.35 1-3 1-3 .45-3 1-.9 1-2 1-2 .45-2 1-1.35 1-3 1-3 .45-3 1-.9 1-2 1-2 .45-2 1-1.35 1-3 1-3 .45-3 1-1.35 1-3 1-3 .45-3 1-.9 1-2 1-2 .45-2 1-1.35 1-3 1-3 .45-3 1-1.35 1-3 1-3 .45-3 1-.9 1-2 1-2 .45-2 1-1.35 1-3 1-3 .45-3 1-2.507 1-5.571 1c-8.577 0-10.678 3.097-5.429 8 1.65 1.541 3 3.423 3 4.18 0 .758.9 2.027 2 2.82 1.1.793 2 2.143 2 3 0 .857.9 2.207 2 3 1.1.793 2 2.242 2 3.221 0 .978.45 1.779 1 1.779s1 .801 1 1.779c0 .979.9 2.428 2 3.221 1.1.793 2 2.242 2 3.221 0 .978.45 1.779 1 1.779s1 .801 1 1.779c0 .979.9 2.428 2 3.221 1.1.793 2 2.242 2 3.221 0 1.112.749 1.779 2 1.779 1.1 0 2-.45 2-1s.707-1 1.571-1c1.98 0 4.923-2.858 3.911-3.798-.416-.386-.957-.139-1.202.548-.246.688-1.272 1.25-2.28 1.25-1.008 0-2.019.558-2.247 1.241-.518 1.555-3.753-1.417-3.753-3.449 0-.743-.9-1.999-2-2.792-1.1-.793-2-2.242-2-3.221 0-.978-.45-1.779-1-1.779s-1-.801-1-1.779c0-.979-.9-2.428-2-3.221-1.1-.793-2-2.242-2-3.221 0-.978-.45-1.779-1-1.779s-1-.801-1-1.779c0-.979-.9-2.428-2-3.221-1.1-.793-2-2.062-2-2.82 0-.757-1.35-2.639-3-4.18-1.845-1.723-3-3.803-3-5.401 0-2.51.206-2.599 6-2.599 3.333 0 6-.444 6-1 0-.55 1.35-1 3-1s3-.45 3-1 1.35-1 3-1 3-.45 3-1 1.35-1 3-1 3-.45 3-1 .9-1 2-1 2-.45 2-1 1.35-1 3-1 3-.45 3-1 .9-1 2-1 2-.45 2-1 1.35-1 3-1 3-.45 3-1 .9-1 2-1 2-.45 2-1 1.35-1 3-1 3-.45 3-1 1.35-1 3-1 3-.45 3-1 .9-1 2-1 2-.45 2-1 1.35-1 3-1 3-.45 3-1 .9-1 2-1 2-.45 2-1 1.35-1 3-1 3-.45 3-1 .695-1 1.545-1c2.43 0 6.455-4.648 6.455-7.455 0-1.4-.45-2.545-1-2.545s-1-.801-1-1.779c0-.979-.9-2.428-2-3.221-1.1-.793-2-2.029-2-2.747s-2.013-3.319-4.474-5.779c-4.303-4.304-5.526-5.161-5.526-3.875M898 297c0 .55.45 1 1 1s1-.45 1-1-.45-1-1-1-1 .45-1 1m-6 2c0 .55-.9 1-2 1s-2 .45-2 1-.9 1-2 1-2 .45-2 1-.9 1-2 1-2 .45-2 1-.9 1-2 1-2 .45-2 1-.9 1-2 1-2 .45-2 1-.9 1-2 1-2 .45-2 1-.9 1-2 1-2 .45-2 1-.9 1-2 1-2 .45-2 1-.9 1-2 1-2 .45-2 1-.9 1-2 1-2 .45-2 1 .9 1 2 1 2-.45 2-1 .9-1 2-1 2-.45 2-1 .9-1 2-1 2-.45 2-1 .9-1 2-1 2-.45 2-1 .9-1 2-1 2-.45 2-1 .9-1 2-1 2-.45 2-1 .9-1 2-1 2-.45 2-1 .9-1 2-1 2-.45 2-1 .9-1 2-1 2-.45 2-1 .9-1 2-1 2-.45 2-1 .9-1 2-1 2-.45 2-1-.9-1-2-1-2 .45-2 1m-44 22c0 .55.45 1 1 1s1-.45 1-1-.45-1-1-1-1 .45-1 1m-4 2c0 .55.45 1 1 1s1-.45 1-1-.45-1-1-1-1 .45-1 1m-4 2c0 .55.45 1 1 1s1-.45 1-1-.45-1-1-1-1 .45-1 1m-4 2c0 .55.45 1 1 1s1-.45 1-1-.45-1-1-1-1 .45-1 1m-800 4c0 .55.9 1 2 1s2-.45 2-1-.9-1-2-1-2 .45-2 1m6 2c0 .55.9 1 2 1s2-.45 2-1-.9-1-2-1-2 .45-2 1m6 2c0 .55.9 1 2 1s2-.45 2-1-.9-1-2-1-2 .45-2 1m6 2c0 .55 1.35 1 3 1s3-.45 3-1-1.35-1-3-1-3 .45-3 1m8 2c0 .55.9 1 2 1s2-.45 2-1-.9-1-2-1-2 .45-2 1m912 2c0 1.65.45 3 1 3s1-1.35 1-3-.45-3-1-3-1 1.35-1 3m-906 0c0 .55.9 1 2 1s2-.45 2-1-.9-1-2-1-2 .45-2 1m6 2c0 .55.9 1 2 1s2-.45 2-1-.9-1-2-1-2 .45-2 1m6 2c0 .55.9 1 2 1s2-.45 2-1-.9-1-2-1-2 .45-2 1m6 2c0 .55 1.35 1 3 1s3-.45 3-1-1.35-1-3-1-3 .45-3 1m886 1c0 1.1-.45 2-1 2s-1 .687-1 1.526c0 1.985-8.489 10.474-10.474 10.474-.839 0-1.526.45-1.526 1s-.9 1-2 1-2 .45-2 1 .9 1 2 1 2-.45 2-1 .685-1 1.522-1c1.98 0 12.478-10.498 12.478-12.478 0-.837.45-1.522 1-1.522s1-.9 1-2-.45-2-1-2-1 .9-1 2m-878 1c0 .55.9 1 2 1s2-.45 2-1-.9-1-2-1-2 .45-2 1m6 2c0 .55.9 1 2 1s2-.45 2-1-.9-1-2-1-2 .45-2 1m6 2c0 .55.9 1 2 1s2-.45 2-1-.9-1-2-1-2 .45-2 1m6 2c0 .55.9 1 2 1s2-.45 2-1-.9-1-2-1-2 .45-2 1m6 2c0 .55 1.35 1 3 1s3-.45 3-1-1.35-1-3-1-3 .45-3 1m8 2c0 .55.9 1 2 1s2-.45 2-1-.9-1-2-1-2 .45-2 1m6 2c0 .55.9 1 2 1s2-.45 2-1-.9-1-2-1-2 .45-2 1m6 2c0 .55.9 1 2 1s2-.45 2-1-.9-1-2-1-2 .45-2 1m6 2c0 .55.9 1 2 1s2-.45 2-1-.9-1-2-1-2 .45-2 1m804 2c0 .55.9 1 2 1s2-.45 2-1-.9-1-2-1-2 .45-2 1m-8 2c0 .55 1.35 1 3 1s3-.45 3-1-1.35-1-3-1-3 .45-3 1m-6 2c0 .55.9 1 2 1s2-.45 2-1-.9-1-2-1-2 .45-2 1m-8 2c0 .55.9 1 2 1s2-.45 2-1-.9-1-2-1-2 .45-2 1m-8 2c0 .55.9 1 2 1s2-.45 2-1-.9-1-2-1-2 .45-2 1m-8 2c0 .55 1.35 1 3 1s3-.45 3-1-1.35-1-3-1-3 .45-3 1m-8 2c0 .55 1.35 1 3 1s3-.45 3-1-1.35-1-3-1-3 .45-3 1m-8 2c0 .55 1.35 1 3 1s3-.45 3-1-1.35-1-3-1-3 .45-3 1m-6 2c0 .55.9 1 2 1s2-.45 2-1-.9-1-2-1-2 .45-2 1m-8 2c0 .55.9 1 2 1s2-.45 2-1-.9-1-2-1-2 .45-2 1m-8 2c0 .55-.9 1-2 1s-2 .45-2 1 .9 1 2 1 2-.45 2-1 1.35-1 3-1 3-.45 3-1-1.35-1-3-1-3 .45-3 1M52 405.917c0 1.054-.562 2.179-1.25 2.5-1 .466-1 .7 0 1.166.688.321 1.25 1.446 1.25 2.5 0 1.463.71 1.917 3 1.917s3-.454 3-1.917c0-1.054.558-2.102 1.241-2.33 1.652-.551-1.479-3.753-3.67-3.753-.864 0-1.571-.45-1.571-1s-.45-1-1-1-1 .863-1 1.917M422 563c0 .583-3.333 1-8 1s-8 .417-8 1c0 .55-.9 1-2 1s-2 .45-2 1-.685 1-1.522 1C398.625 568 388 578.437 388 580.258c0 .715-.9 1.949-2 2.742-1.587 1.144-2 2.589-2 7s.413 5.856 2 7c1.1.793 2 2.242 2 3.221 0 .978.45 1.779 1 1.779s1 .9 1 2 .45 2 1 2 1 1.8 1 4 .45 4 1 4c.6 0 1 4 1 10s.4 10 1 10c.556 0 1 2.667 1 6s-.444 6-1 6-1 2.667-1 6-.444 6-1 6c-.55 0-1 1.35-1 3s-.45 3-1 3-1 1.35-1 3-.45 3-1 3c-.556 0-1 2.667-1 6s-.444 6-1 6c-.571 0-1 3-1 7s.429 7 1 7c.55 0 1 1.35 1 3s.45 3 1 3 1 1.35 1 3 .45 3 1 3 1 1.35 1 3 .45 3 1 3 1 .801 1 1.779c0 .979.9 2.428 2 3.221 1.1.793 2 2.062 2 2.82 0 .757 1.35 2.639 3 4.18s3 3.307 3 3.923c0 1.565 10.669 12.077 12.258 12.077.715 0 1.949.9 2.742 2 .793 1.1 2.242 2 3.221 2 .978 0 1.779.45 1.779 1s.45 1 1 1c.611 0 1-4.667 1-12s-.389-12-1-12c-.571 0-1-3-1-7s-.429-7-1-7c-.55 0-1-1.8-1-4s-.45-4-1-4-1-1.8-1-4-.45-4-1-4-1-1.35-1-3-.45-3-1-3-1-1.35-1-3-.45-3-1-3-1-2.25-1-5 .45-5 1-5 1-.9 1-2c0-1.778-.667-2-6-2h-6v-3c0-2.667.333-3 3-3 1.65 0 3-.45 3-1s1.35-1 3-1 3 .45 3 1 .9 1 2 1 2 .45 2 1 1.35 1 3 1c2.333 0 3-.444 3-2 0-1.1-.45-2-1-2-.63 0-1-6.667-1-18s.37-18 1-18c.55 0 1-.45 1-1 0-1.557-8.949-1.194-10.571.429-.786.785-1.429 2.585-1.429 4 0 2.275-.405 2.571-3.526 2.571-2.843 0-4.394-.867-8-4.474-2.461-2.46-4.474-5.16-4.474-6 0-.839-.45-1.526-1-1.526s-1-.9-1-2c0-1.721.667-2 4.779-2 3.632 0 5.125-.48 6.221-2 .793-1.1 2.242-2 3.221-2 1.112 0 1.779-.749 1.779-2 0-1.152-.667-2-1.571-2-.865 0-2.241-.669-3.059-1.487-1.316-1.316-1.198-1.776 1.026-4 1.382-1.382 3.659-2.513 5.059-2.513 1.4 0 2.545-.45 2.545-1s.9-1 2-1 2-.45 2-1 1.607-1 3.571-1c3.782 0 6.429-1.823 6.429-4.429 0-.864.45-1.571 1-1.571s1-1.35 1-3 .45-3 1-3 1-1.8 1-4 .45-4 1-4 1-2.25 1-5v-5h-5c-2.75 0-5-.45-5-1s-.9-1-2-1-2 .45-2 1m176 1.526c0 1.252 9.09 9.474 10.474 9.474.839 0 1.526.862 1.526 1.917 0 1.054.563 2.179 1.25 2.5 1 .466 1 .7 0 1.166-.687.321-1.25 1.446-1.25 2.5 0 1.055-.45 1.917-1 1.917s-1-.45-1-1-.9-1-2-1-2-.45-2-1-1.701-1-3.779-1c-2.632 0-4.217-.607-5.221-2-.847-1.174-2.589-2-4.221-2-2.73 0-2.779.106-2.779 6 0 3.333.444 6 1 6 .583 0 1 3.333 1 8s.417 8 1 8c.55 0 1 .9 1 2 0 1.333.667 2 2 2 1.1 0 2 .45 2 1s.801 1 1.779 1c.979 0 2.428.9 3.221 2 .793 1.1 2.029 2 2.747 2s3.319 2.013 5.779 4.474c4.94 4.939 6.131 9.526 2.474 9.526-1.1 0-2-.45-2-1 0-1.506-2.942-1.2-4.624.481-1.308 1.308-1.07 1.892 2.038 5 1.936 1.935 4.209 3.519 5.053 3.519.866 0 1.533.87 1.533 2 0 1.1.45 2 1 2s1 .707 1 1.571c0 .865.643 2.215 1.429 3 1.638 1.639 4.571 1.914 4.571.429 0-.55.9-1 2-1s2-.45 2-1c0-1.663 7.013-1.13 8.813.67 1.214 1.214 1.331 1.782.428 2.083-.683.228-1.241 1.276-1.241 2.33 0 1.463-.71 1.917-3 1.917-1.65 0-3 .45-3 1s-1.35 1-3 1-3 .45-3 1-.9 1-2 1-2 .45-2 1-1.157 1-2.571 1c-2.65 0-5.429-2.022-5.429-3.95 0-1.671-10.749-12.05-12.478-12.05-1.024 0-1.522.981-1.522 3 0 1.65.45 3 1 3 .611 0 1 4.667 1 12s-.389 12-1 12c-.55 0-1 .707-1 1.571 0 1.516-2.255 4.429-3.429 4.429-.314 0-.571-1.8-.571-4 0-4.601-.495-4.866-3.267-1.75-1.358 1.526-2.147 1.848-2.451 1-.531-1.48-4.282-1.699-4.282-.25 0 .55-.9 1-2 1s-2 .45-2 1-2.25 1-5 1-5 .45-5 1c0 1.446-3.756 1.232-4.247-.241-.301-.903-.869-.786-2.083.429-3.573 3.572-.835 6.812 5.759 6.812 2.514 0 4.571.45 4.571 1 0 .606 4.333 1 11 1s11 .394 11 1c0 .55.9 1 2 1s2 .45 2 1 .707 1 1.571 1c2.361 0 4.429 2.535 4.429 5.429 0 2.333-.37 2.571-4 2.571-2.2 0-4-.45-4-1s-1.35-1-3-1c-2.333 0-3 .444-3 2 0 1.1-.45 2-1 2s-1 1.35-1 3-.45 3-1 3-1 2.25-1 5-.45 5-1 5-1 1.8-1 4-.45 4-1 4c-.571 0-1 3-1 7s-.429 7-1 7c-1.637 0-1.252 14.891.429 16.571 1.846 1.847 2.571 1.807 2.571-.142 0-1.832 2.346-4.429 4-4.429 1.488 0 4-2.529 4-4.027 0-.644 1.35-2.432 3-3.973s3-3.522 3-4.401c0-.88.801-1.599 1.779-1.599.979 0 2.428-.9 3.221-2 1.489-2.066 5-2.768 5-1 0 .55.9 1 2 1s2-.45 2-1 .9-1 2-1c1.251 0 2-.667 2-1.779 0-.979.9-2.428 2-3.221 1.1-.793 2-2.143 2-3 0-.857.9-2.207 2-3 1.103-.795 2-2.589 2-4s.897-3.205 2-4c1.1-.793 2-2.242 2-3.221 0-.978.45-1.779 1-1.779s1-1.35 1-3 .45-3 1-3 1-.9 1-2 .45-2 1-2 1-.9 1-2 .45-2 1-2 1-1.35 1-3 .45-3 1-3 1-1.35 1-3 .45-3 1-3 1-1.35 1-3 .45-3 1-3 1-1.35 1-3 .45-3 1-3 1-2.25 1-5 .45-5 1-5c.593 0 1-3.667 1-9s-.407-9-1-9c-.556 0-1-2.667-1-6s-.444-6-1-6c-.55 0-1-.9-1-2s-.45-2-1-2-1-.9-1-2-.45-2-1-2-1-.704-1-1.565-2.25-3.756-5-6.435-5-5.574-5-6.435c0-.861-.45-1.565-1-1.565s-1-.704-1-1.565-2.25-3.756-5-6.435-5-5.574-5-6.435c0-.861-.45-1.565-1-1.565s-1-.45-1-1 1.8-1 4-1c3.778 0 4-.167 4-3 0-1.65-.45-3-1-3s-1-.9-1-2c0-1.483-.667-2-2.578-2-1.701 0-3.887-1.361-6.422-4-2.114-2.2-4.454-4-5.201-4-.747 0-2.006-.9-2.799-2-1.273-1.766-5-2.864-5-1.474M546 569c0 .55-1.8 1-4 1s-4 .45-4 1-1.35 1-3 1-3 .45-3 1-1.35 1-3 1-3 .45-3 1-.9 1-2 1-2 .45-2 1-.719 1-1.599 1c-.879 0-2.86 1.35-4.401 3s-3.423 3-4.18 3c-.758 0-2.027.9-2.82 2-.793 1.1-2.049 2-2.792 2-1.635 0-4.208 2.43-4.208 3.974 0 1.909-4.8 6.026-7.026 6.026-2.264 0-4.974-2.152-4.974-3.95 0-.602-2.465-3.559-5.478-6.572-3.741-3.741-6.278-5.478-8-5.478-1.387 0-2.522-.45-2.522-1s-.9-1-2-1-2-.45-2-1-.9-1-2-1-2-.45-2-1-.9-1-2-1-2-.45-2-1-.9-1-2-1-2-.45-2-1-.9-1-2-1-2-.45-2-1-.9-1-2-1c-1.81 0-2 .667-2 7 0 4 .429 7 1 7 .55 0 1 1.35 1 3s.45 3 1 3 1 .695 1 1.545c0 2.001 4.454 6.455 6.455 6.455.85 0 1.545.45 1.545 1s.9 1 2 1c1.556 0 2 .667 2 3s-.444 3-2 3c-1.1 0-2 .45-2 1s.45 1 1 1 1 .9 1 2 .45 2 1 2 1 1.35 1 3 .45 3 1 3 1 .9 1 2 .45 2 1 2 1 1.35 1 3c0 2.995-.009 3-5.917 3-3.755 0-6.129-.457-6.5-1.25-.466-1-.7-1-1.166 0-.321.688-1.446 1.25-2.5 1.25s-1.917.45-1.917 1-.707 1-1.571 1c-2.021 0-4.429 2.408-4.429 4.429 0 .864-.45 1.571-1 1.571s-1 .9-1 2 .45 2 1 2 1 .9 1 2c0 1.333.667 2 2 2 1.1 0 2 .45 2 1s.9 1 2 1c1.667 0 2 .667 2 4 0 4.973 1.981 5.303 6 1 1.541-1.65 3.072-3 3.401-3 .33 0 .599 3.15.599 7 0 4-.429 7-1 7-1.457 0-1.227 7.727.25 8.417 1 .466 1 .7 0 1.166-.687.321-1.25 1.896-1.25 3.5 0 1.605-.45 2.917-1 2.917s-1 .801-1 1.779c0 .979-.9 2.428-2 3.221-1.1.793-2 2.242-2 3.221 0 .978-.45 1.779-1 1.779s-1 .9-1 2-.45 2-1 2-1 .9-1 2-.45 2-1 2-1 1.35-1 3-.45 3-1 3-1 1.8-1 4-.45 4-1 4-1 1.35-1 3-.45 3-1 3-1 1.8-1 4-.45 4-1 4c-.583 0-1 3.333-1 8s-.417 8-1 8c-.55 0-1 1.35-1 3s-.45 3-1 3-1 .9-1 2-.45 2-1 2-1 1.145-1 2.545c0 2.686 3.988 7.455 6.234 7.455.728 0 1.973.9 2.766 2 .793 1.1 2.143 2 3 2 .857 0 2.207.9 3 2 .793 1.1 2.242 2 3.221 2 .978 0 1.779.45 1.779 1s.9 1 2 1 2 .45 2 1 1.35 1 3 1 3 .45 3 1 .9 1 2 1 2 .45 2 1 1.8 1 4 1 4 .45 4 1 .9 1 2 1 2 .45 2 1 .863 1 1.917 1 2.179.563 2.5 1.25c.466 1 .7 1 1.166 0 .403-.863 3.345-1.25 9.5-1.25 5.278 0 8.917-.408 8.917-1 0-.55 2.25-1 5-1s5-.45 5-1c0-.571 3-1 7-1s7-.429 7-1c0-.55 1.8-1 4-1s4-.45 4-1 1.35-1 3-1 3-.45 3-1 1.35-1 3-1 3-.45 3-1 1.35-1 3-1 3-.45 3-1 .9-1 2-1 2-.45 2-1-.45-1-1-1c-1.768 0-1.066-3.511 1-5 1.662-1.198 2-2.589 2-8.221 0-3.853-.432-6.779-1-6.779-.571 0-1-3-1-7v-7h-3c-1.65 0-3 .45-3 1s-1.35 1-3 1-3 .45-3 1-1.35 1-3 1-3 .45-3 1-1.8 1-4 1-4 .45-4 1c0 .597-3.848 1-9.545 1-8.802 0-9.737-.191-12-2.455-1.35-1.35-2.455-2.7-2.455-3 0-.3 2.25-.545 5-.545s5-.45 5-1c0-.571 3-1 7-1s7-.429 7-1c0-.55 1.8-1 4-1s4-.45 4-1 1.35-1 3-1 3-.45 3-1 .9-1 2-1 2-.45 2-1 .707-1 1.571-1c.865 0 2.215-.643 3-1.429 1.639-1.638 1.914-4.571.429-4.571-.55 0-1-1.35-1-3s-.45-3-1-3-1-1.35-1-3-.45-3-1-3-1-1.763-1-3.917c0-2.196-.549-4.139-1.25-4.424-.953-.386-.909-.744.187-1.507 1.177-.82.815-1.585-2-4.231-2.152-2.023-2.97-3.391-2.187-3.659.688-.236 1.25-1.192 1.25-2.125 0-.932.9-2.344 2-3.137 1.833-1.322 2-2.589 2-15.221 0-8.519.382-13.779 1-13.779.571 0 1-3 1-7s.429-7 1-7c.55 0 1-1.8 1-4 0-3.778-.167-4-3-4-1.65 0-3 .45-3 1 0 .565-2.848 1-6.545 1-5.683 0-6.882-.336-9.096-2.55l-2.55-2.55 2.096-1.817C536.07 623.204 536.761 620 535 620c-.55 0-1-.45-1-1s1.35-1 3-1 3-.45 3-1 1.35-1 3-1 3-.45 3-1 2.25-1 5-1 5-.45 5-1 .9-1 2-1 2-.45 2-1-2.507-1-5.571-1c-5.734 0-8.429-1.416-8.429-4.429 0-.904.848-1.571 2-1.571 1.1 0 2-.45 2-1 0-.571 3-1 7-1 6.333 0 7-.19 7-2 0-1.1.45-2 1-2s1-.9 1-2 .45-2 1-2 1-.9 1-2 .45-2 1-2 1-1.35 1-3 .45-3 1-3 1-2.25 1-5 .45-5 1-5 1-.9 1-2c0-1.333-.667-2-2-2-1.1 0-2-.45-2-1 0-.611-4.667-1-12-1s-12 .389-12 1m-428 24c0 .55-1.35 1-3 1s-3 .45-3 1c0 .615 5 1 13 1 12.333 0 13-.103 13-2 0-1.867-.667-2-10-2-6 0-10 .4-10 1m302 12c0 .55.9 1 2 1s2-.45 2-1-.9-1-2-1-2 .45-2 1m-130 20c0 6.667.394 11 1 11 .55 0 1 1.35 1 3s.45 3 1 3c1.692 0 1.291-24.852-.429-26.571-.785-.786-1.685-1.429-2-1.429-.314 0-.571 4.95-.571 11m644-8c0 .55.9 1 2 1s2 .45 2 1 1.35 1 3 1 3 .45 3 1 1.8 1 4 1 4 .45 4 1 .9 1 2 1c1.333 0 2-.667 2-2 0-1.556-.667-2-3-2-1.65 0-3-.45-3-1s-1.35-1-3-1-3-.45-3-1-2.25-1-5-1-5 .45-5 1m-352 20c0 1.65-.45 3-1 3s-1 1.701-1 3.779c0 2.632.607 4.217 2 5.221 1.1.793 2 2.038 2 2.766 0 1.609 4.471 6.234 6.026 6.234 3.036 0 3.974-2.934 3.974-12.429 0-8.904-.139-9.571-2-9.571-1.1 0-2-.45-2-1s-1.8-1-4-1c-3.778 0-4 .167-4 3m-444.958 16.719c-1.077 1.212-1.142 1.748-.25 2.045.664.221 1.208 1.265 1.208 2.319 0 1.055.257 1.917.571 1.917 1.174 0 3.429-2.913 3.429-4.429 0-.864.45-1.571 1-1.571s1-.45 1-1c0-1.622-5.373-1.068-6.958.719M84 657c0 .55-.707 1-1.571 1-1.516 0-4.429 2.255-4.429 3.429 0 .314.9.571 2 .571s2 .45 2 1 .9 1 2 1c2.206 0 2.723-1.574.75-2.282-.848-.304-.526-1.093 1-2.451 2.775-2.469 2.836-3.267.25-3.267-1.1 0-2 .45-2 1m364 2c-1.41 1.658-3.512 2.953-4.821 2.97-1.277.017-2.997.705-3.822 1.53-1.333 1.333-1.333 1.667 0 3 2.066 2.066 17.163 2.122 19.214.071 1.98-1.979 1.786-3.872-.571-5.571-1.1-.793-2-2.242-2-3.221 0-2.985-5.083-2.21-8 1.221m122 1c0 1.333.667 2 2 2 2.369 0 2.509-.634.571-2.571-1.937-1.938-2.571-1.798-2.571.571m-426 7c0 .55-1.35 1-3 1s-3 .45-3 1 1.35 1 3 1 3-.45 3-1 .9-1 2-1 2-.45 2-1-.9-1-2-1-2 .45-2 1m738 0c0 .55-.9 1-2 1s-2 .45-2 1 .9 1 2 1 2 .45 2 1c0 1.833 3.06 1.03 5.545-1.455 1.35-1.35 2.455-2.7 2.455-3 0-.3-1.8-.545-4-.545s-4 .45-4 1m-792 4c0 .55-1.8 1-4 1s-4 .45-4 1c0 1.534 6.956 1.187 8.571-.429C92.247 670.896 92.396 670 91 670c-.55 0-1 .45-1 1m716 9c0 4.667.417 8 1 8s1-3.333 1-8-.417-8-1-8-1 3.333-1 8m72 1c0 .55.9 1 2 1s2 .45 2 1 1.35 1 3 1 3-.45 3-1-1.35-1-3-1-3-.45-3-1-.9-1-2-1-2 .45-2 1m58 0c0 .55.45 1 1 1s1 .9 1 2c0 1.333.667 2 2 2s2-.667 2-2c0-1.1.45-2 1-2s1-.45 1-1-1.8-1-4-1-4 .45-4 1m-2 14c0 .556 2.667 1 6 1s6-.444 6-1-2.667-1-6-1-6 .444-6 1m-652 26c0 .55-.695 1-1.545 1-2.001 0-6.455 4.454-6.455 6.455 0 .85-.45 1.545-1 1.545s-1 1.35-1 3-.45 3-1 3-1 1.35-1 3-.45 3-1 3-1 1.35-1 3c0 2.333.444 3 2 3 1.1 0 2-.45 2-1s.45-1 1-1 1 .735 1 1.633.949 2.456 2.109 3.462c2.022 1.753 2.036 1.903.331 3.608-1.272 1.272-1.897 1.425-2.193.538-.228-.683-1.096-1.241-1.929-1.241-.834 0-2.777-1.35-4.318-3-1.541-1.65-3.484-3-4.318-3-.833 0-1.701-.558-1.929-1.241-.301-.903-.869-.786-2.083.429-1.073 1.072-1.67 3.304-1.67 6.241V758h4c2.2 0 4 .45 4 1s2.25 1 5 1 5 .45 5 1 .707 1 1.571 1c2.021 0 4.429 2.408 4.429 4.429 0 1.079-.939 1.571-3 1.571-1.65 0-3 .45-3 1s.801 1 1.779 1c.979 0 2.428.9 3.221 2 1.229 1.705 2.589 2 9.221 2H298v-3c0-1.65-.45-3-1-3-1.443 0-1.233-3.725.25-4.417 1-.466 1-.7 0-1.166-.687-.321-1.25-1.446-1.25-2.5 0-1.055-.45-1.917-1-1.917-.609 0-1-4.524-1-11.571 0-9.475.303-11.874 1.67-13.241 1.214-1.215 1.782-1.332 2.083-.429.228.683 1.276 1.241 2.33 1.241s1.917.45 1.917 1 .707 1 1.571 1c1.928 0 4.429 2.377 4.429 4.208 0 .743.9 1.999 2 2.792 1.1.793 2 2.242 2 3.221 0 .978.45 1.779 1 1.779s1 1.35 1 3-.45 3-1 3-1 1.8-1 4c0 3.333.333 4 2 4 1.1 0 2-.45 2-1s.9-1 2-1c1.778 0 2-.667 2-6 0-3.333-.444-6-1-6-.55 0-1-1.8-1-4s-.45-4-1-4-1-1.701-1-3.779c0-2.632-.607-4.217-2-5.221-1.1-.793-2-2.242-2-3.221 0-1.112-.749-1.779-2-1.779-1.1 0-2-.45-2-1s-.9-1-2-1-2-.45-2-1-1.35-1-3-1-3-.45-3-1c0-.583-3.333-1-8-1s-8 .417-8 1m177.25 2.496c-2.065 2.345-1.585 6.504.75 6.504 1.1 0 2 .45 2 1s.9 1 2 1 2 .45 2 1 1.35 1 3 1 3 .45 3 1 1.35 1 3 1 3 .45 3 1 .9 1 2 1 2-.45 2-1 .707-1 1.571-1c2.021 0 4.429-2.408 4.429-4.429 0-1.079-.939-1.571-3-1.571-1.65 0-3-.45-3-1s-1.35-1-3-1-3-.45-3-1-.9-1-2-1-2-.45-2-1-1.35-1-3-1-3-.45-3-1c0-1.514-5.325-1.123-6.75.496m-74 14c-1.849 2.099-1.566 2.504 1.75 2.504 2.333 0 3-.444 3-2 0-2.346-2.861-2.65-4.75-.504M326 745c0 2.75-.45 5-1 5s-1 .9-1 2 .257 2 .571 2c1.174 0 3.429-2.913 3.429-4.429 0-.864.45-1.571 1-1.571 1.518 0 1.195-4.948-.429-6.571-2.238-2.238-2.571-1.775-2.571 3.571m269 5c-.793 1.1-2.242 2-3.221 2-.978 0-1.779.45-1.779 1s-.9 1-2 1-2 .45-2 1-.707 1-1.571 1c-1.516 0-4.429 2.255-4.429 3.429 0 .314 1.35.571 3 .571s3-.45 3-1 .801-1 1.779-1c.979 0 2.428-.9 3.221-2 .793-1.1 2.038-2 2.766-2 1.276 0 6.234-4.338 6.234-5.455 0-1.405-3.718-.324-5 1.455m203 3c0 .55-1.8 1-4 1s-4 .45-4 1-.801 1-1.779 1c-.979 0-2.428.9-3.221 2-.793 1.1-2.242 2-3.221 2-.978 0-1.779.45-1.779 1s-.9 1-2 1-2 .45-2 1-1.157 1-2.571 1c-3.45 0-5.429 2.187-5.429 6s1.979 6 5.429 6c1.414 0 2.571.45 2.571 1s.801 1 1.779 1c.979 0 2.428.9 3.221 2 .793 1.1 2.499 2 3.792 2 1.293 0 2.994.643 3.779 1.429 1.624 1.623 1.947 6.571.429 6.571-.55 0-1 1.35-1 3v3h6c5.333 0 6-.222 6-2 0-1.333.667-2 2-2s2 .667 2 2c0 2.736 2.565 2.526 5.545-.455 3.152-3.151 3.091-3.545-.545-3.545-3.745 0-3.955-2.136-.545-5.545 1.35-1.35 3.15-2.455 4-2.455 2.128 0 1.935-1.278-.455-3-1.1-.793-2-2.242-2-3.221 0-1.112.749-1.779 2-1.779 1.1 0 2-.45 2-1s.707-1 1.571-1c3.4 0 5.94-5.128 3.179-6.417-1-.466-1-.7 0-1.166 2.137-.998 1.389-3.345-2.217-6.95-2.131-2.131-4.442-3.467-6-3.467-1.393 0-2.533-.45-2.533-1s-2.25-1-5-1-5 .45-5 1m-154 5.578c0 1.701 1.361 3.887 4 6.422 2.265 2.176 4 4.788 4 6.02 0 1.198 1.35 3.439 3 4.98 1.65 1.541 3 3.522 3 4.401 0 .88.45 1.599 1 1.599s1 .9 1 2 .45 2 1 2 1 .9 1 2 .45 2 1 2 1 .9 1 2 .45 2 1 2 1 1.35 1 3 .45 3 1 3 1 1.35 1 3 .45 3 1 3 1 .71 1 1.578c0 .869 1.8 3.308 4 5.422s4 4.553 4 5.422c0 .868.45 1.578 1 1.578s1 1.35 1 3 .45 3 1 3c1.457 0 1.227-7.727-.25-8.417-1-.466-1-.7 0-1.166 1.514-.707 1.749-12.417.25-12.417-.55 0-1-1.35-1-3s-.45-3-1-3-1-.9-1-2-.45-2-1-2-1-.735-1-1.633-.998-2.498-2.218-3.556c-1.883-1.633-1.996-2.077-.75-2.943 1.112-.773 1.165-1.143.218-1.527-.687-.279-1.25-1.37-1.25-2.424 0-1.055-.45-1.917-1-1.917s-1-1.154-1-2.565c0-1.762-1.565-4.09-5-7.435-2.75-2.679-5-5.382-5-6.007 0-1.56-2.563-3.993-4.208-3.993-.743 0-1.999-.9-2.792-2-1.004-1.393-2.589-2-5.221-2-3.395 0-3.779.262-3.779 2.578M794 757c0 .55-.9 1-2 1s-2 .45-2 1-.801 1-1.779 1c-.979 0-2.428.9-3.221 2-.793 1.1-2.242 2-3.221 2-.978 0-1.779.45-1.779 1s-1.35 1-3 1c-2.773 0-3 .27-3 3.571 0 3.663 1.811 6.429 4.208 6.429.743 0 1.999.9 2.792 2 1.096 1.52 2.589 2 6.221 2 2.628 0 4.779-.45 4.779-1s.9-1 2-1c1.667 0 2-.667 2-4 0-2.2.45-4 1-4s1-1.35 1-3 .45-3 1-3c1.518 0 1.195-4.948-.429-6.571-1.638-1.639-4.571-1.914-4.571-.429m-492 4c0 .55.9 1 2 1s2-.45 2-1-.9-1-2-1-2 .45-2 1m638 4c0 3.355.489 3.654 2.571 1.571 2.082-2.081 1.77-4.571-.571-4.571-1.556 0-2 .667-2 3m-542.75.496c-1.921 2.181-1.566 2.504 2.75 2.504 3.333 0 4-.333 4-2 0-1.524-.654-1.991-2.75-1.962-1.512.021-3.312.677-4 1.458m14.75 2.103c0 .879 1.35 2.86 3 4.401s3 3.522 3 4.401c0 .88.45 1.599 1 1.599s1 .9 1 2-.45 2-1 2c-.611 0-1 4.667-1 12s.389 12 1 12c.615 0 1 5 1 13s-.385 13-1 13c-.55 0-1 1.35-1 3s.45 3 1 3 1 2.25 1 5 .257 5 .571 5c1.853 0 3.429-3.415 3.429-7.429 0-2.514.45-4.571 1-4.571.583 0 1-3.333 1-8s.417-8 1-8c.625 0 1-6 1-16s-.375-16-1-16c-.55 0-1-1.35-1-3s-.45-3-1-3-1-.9-1-2-.45-2-1-2-1-.687-1-1.526c0-1.384-8.222-10.474-9.474-10.474-.289 0-.526.719-.526 1.599M384 775c0 .55.45 1 1 1s1-.45 1-1-.45-1-1-1-1 .45-1 1m-36.75 2.496c-.687.781-1.25 2.114-1.25 2.962 0 .848-.45 1.542-1 1.542s-1 .9-1 2-.45 2-1 2c-.6 0-1 4-1 10 0 8.424.248 10 1.571 10 2.361 0 4.429-2.535 4.429-5.429 0-1.414.45-2.571 1-2.571.606 0 1-4.333 1-11 0-6.05-.337-10.983-.75-10.962-.413.021-1.312.677-2 1.458M382 779c0 .55.45 1 1 1s1-.45 1-1-.45-1-1-1-1 .45-1 1m120 17.779c0 .429.9 1.428 2 2.221 1.393 1.004 2 2.589 2 5.221 0 2.078.45 3.779 1 3.779s1 1.251 1 2.779c0 1.632.826 3.374 2 4.221s2 2.589 2 4.221c0 1.528.45 2.779 1 2.779.633 0 1 7.333 1 20s.367 20 1 20c.55 0 1 .9 1 2s.45 2 1 2 1-.801 1-1.779c0-.979.9-2.428 2-3.221 1.393-1.004 2-2.589 2-5.221 0-2.078.45-3.779 1-3.779.611 0 1-4.667 1-12s-.389-12-1-12c-.55 0-1-1.8-1-4s-.45-4-1-4-1-1.251-1-2.779c0-1.632-.826-3.374-2-4.221-1.1-.793-2-2.026-2-2.739 0-1.209-12.338-14.261-13.481-14.261-.286 0-.519.351-.519.779m56 .221c0 .55-.9 1-2 1-1.251 0-2 .667-2 1.779 0 .979-.9 2.428-2 3.221-1.1.793-2 2.242-2 3.221 0 .978-.45 1.779-1 1.779s-1 1.8-1 4-.45 4-1 4-1 .9-1 2 .45 2 1 2c.625 0 1 6 1 16s.375 16 1 16c.619 0 1 5.333 1 14s.381 14 1 14c.55 0 1 .9 1 2 0 1.333.667 2 2 2 1.949 0 2-.667 2-26 0-16.667-.359-26-1-26-.55 0-1-.9-1-2s.45-2 1-2c.556 0 1-2.667 1-6s.444-6 1-6 1-2.667 1-6 .444-6 1-6c.55 0 1-1.8 1-4s-.45-4-1-4-1 .45-1 1m40 7c0 3.333.444 6 1 6 .55 0 1 1.35 1 3s.45 3 1 3 1 1.8 1 4 .45 4 1 4 1 1.157 1 2.571c0 2.317 1.965 5.429 3.429 5.429.314 0 .571-1.35.571-3s.45-3 1-3c.571 0 1-3 1-7s-.429-7-1-7c-.55 0-1-1.35-1-3s-.45-3-1-3-1-.707-1-1.571c0-.865-.643-2.215-1.429-3-.785-.786-2.135-1.429-3-1.429-.864 0-1.571-.45-1.571-1s-.45-1-1-1c-.556 0-1 2.667-1 6m180 0c0 1.333.667 2 2 2s2-.667 2-2-.667-2-2-2-2 .667-2 2m-30 31c0 .55-1.137 1-2.526 1-2.719 0-12.272 8.58-10.934 9.82.404.374.935.118 1.18-.57.246-.687 1.309-1.25 2.363-1.25 1.055 0 1.917-.45 1.917-1s.9-1 2-1c1.333 0 2 .667 2 2 0 1.1-.45 2-1 2s-1 2.25-1 5 .45 5 1 5 1-.45 1-1 .862-1 1.917-1c1.054 0 2.102-.558 2.33-1.241.551-1.652 3.753 1.479 3.753 3.67 0 .864.45 1.571 1 1.571s1 .719 1 1.599c0 .879 1.35 2.86 3 4.401 3.346 3.126 3.669 4.474 1.571 6.571-1.979 1.98-3.872 1.786-5.571-.571-.847-1.174-2.589-2-4.221-2-2.112 0-2.779.48-2.779 2 0 1.333.667 2 2 2 1.1 0 2 .45 2 1s1.8 1 4 1 4 .45 4 1 .9 1 2 1 2-.45 2-1 1.8-1 4-1h4v-7.779c0-6.632-.295-7.992-2-9.221-1.1-.793-2-2.242-2-3.221 0-.978-.45-1.779-1-1.779s-1-.9-1-2-.45-2-1-2-1-1.157-1-2.571c0-3.559-2.214-5.429-6.429-5.429-3.301 0-3.571-.227-3.571-3 0-2.333-.444-3-2-3-1.1 0-2 .45-2 1m-503.75 7.525c-1.238 1.322-2.25 3.057-2.25 3.856 0 .799-.562 1.653-1.25 1.899-.727.259-.879.817-.363 1.333s1.074.364 1.333-.363c.529-1.48 4.28-1.699 4.28-.25 0 .55 1.8 1 4 1 3.333 0 4 .333 4 2 0 1.333-.667 2-2 2-1.1 0-2 .45-2 1s-.9 1-2 1c-1.733 0-2 .667-2 5 0 2.75.45 5 1 5s1 .9 1 2-.45 2-1 2c-.6 0-1 4-1 10s.4 10 1 10c.55 0 1 2.25 1 5 0 4.333.267 5 2 5 1.1 0 2-.45 2-1s1.35-1 3-1 3-.257 3-.571c0-1.174-2.913-3.429-4.429-3.429-2.152 0-1.971-1.27.429-3 1.1-.793 2-2.242 2-3.221 0-.978.45-1.779 1-1.779s1-.9 1-2 .45-2 1-2 1-.9 1-2 .45-2 1-2 1-.9 1-2 .45-2 1-2 1-1.35 1-3c0-2.333.444-3 2-3s2-.667 2-3c0-2.556.381-3 2.571-3 3.794 0 5.429-2.237 5.429-7.429 0-4.412.104-4.571 3-4.571 1.65 0 3-.245 3-.545 0-1.217-5.015-5.455-6.455-5.455-.85 0-1.545-.45-1.545-1 0-1.768-3.511-1.066-5 1-1.155 1.603-2.589 2-7.221 2-3.186 0-5.779-.449-5.779-1 0-.55-.801-1-1.779-1-.979 0-2.428-.9-3.221-2-1.879-2.607-3.969-2.444-6.75.525M740 859c0 .55.45 1 1 1s1-.45 1-1-.45-1-1-1-1 .45-1 1m-18.75 6.496c-1.25 1.42-1.733 4.504-.705 4.504.3 0 1.65-1.105 3-2.455s2.455-2.7 2.455-3c0-1.124-3.548-.414-4.75.951m14.75 4.075c0 1.516 2.255 4.429 3.429 4.429 1.134 0 .539-3.175-.858-4.571-1.846-1.847-2.571-1.807-2.571.142M272 873c0 .55.45 1 1 1s1-.45 1-1-.45-1-1-1-1 .45-1 1m10 2c0 1.65.45 3 1 3s1-1.35 1-3-.45-3-1-3-1 1.35-1 3m460 2c0 1.65.45 3 1 3s1 .9 1 2c0 1.543.667 2 2.917 2 1.604 0 3.117.563 3.363 1.25.245.688.805.915 1.243.506.439-.409-.174-1.586-1.363-2.617-1.188-1.03-2.16-2.608-2.16-3.506 0-.898-.45-1.633-1-1.633s-1-.9-1-2c0-1.333-.667-2-2-2-1.556 0-2 .667-2 3m-460.75 4.496c-1.905 2.163-1.649 10.504.321 10.504 2.51 0 4.429-2.6 4.429-6 0-1.729-.643-3.786-1.429-4.571-1.72-1.721-1.748-1.72-3.321.067m9.792 18.223c-1.077 1.212-1.142 1.748-.25 2.045.664.221 1.208 1.265 1.208 2.319 0 1.25.696 1.917 2 1.917 1.1 0 2 .45 2 1s.9 1 2 1c1.333 0 2-.667 2-2 0-1.1-.45-2-1-2s-1-.707-1-1.571c0-1.932-2.39-4.442-4.179-4.391-.726.021-1.977.777-2.779 1.681" fill="undefined" fill-rule="evenodd"/></svg>